<svg width="278" height="118" viewBox="0 0 278 118" fill="none" xmlns="http://www.w3.org/2000/svg">
<path d="M88.2772 95.4789C87.3654 96.8483 86.2261 97.9707 84.9919 98.8855C82.8692 100.457 80.3505 100.701 77.934 99.8253C75.9349 99.1003 74.2421 98.0692 72.784 96.4939C70.6075 94.1398 68.9702 91.4547 67.8273 88.4293C66.5967 85.1767 65.7727 81.9329 65.2604 78.4404C63.6123 67.1733 65.3177 56.692 69.0508 45.7669C52.936 51.975 37.4087 58.6451 22.5227 66.9012L15.3807 70.8627C14.528 71.3353 13.8491 72.0389 12.837 72.2966C10.8397 72.805 8.57901 70.9576 8.9122 68.8327C9.08417 67.7408 10.0891 66.7204 10.9991 66.1654C14.2074 64.2088 17.3834 62.5243 20.7547 60.8559L30.7038 55.9312L44.8822 49.3149C53.3426 45.3677 61.7601 41.4992 70.6093 38.5938L73.4915 37.6486C74.715 37.2458 75.9009 37.6862 76.7518 38.4363C79.007 40.4287 77.1459 43.9517 76.0245 46.4328C72.5798 54.0606 71.4548 59.2448 70.869 67.6029C70.3621 74.8333 72.2842 88.7337 78.9121 93.0568C80.0872 93.823 81.4056 93.6762 82.3407 92.663C83.6144 91.281 84.5441 89.7254 85.4594 88.057L90.1384 79.5252C90.7546 78.401 92.1913 76.0201 93.4309 76.0147C94.6705 76.0094 95.2544 77.8693 95.1326 79.1797C94.6293 84.6575 91.3493 90.8693 88.279 95.4807L88.2772 95.4789Z" fill="url(#paint0_linear_1403_2126)"/>
<path d="M88.2772 95.4789C87.3654 96.8483 86.2261 97.9707 84.9919 98.8855C82.8692 100.457 80.3505 100.701 77.934 99.8253C75.9349 99.1003 74.2421 98.0692 72.784 96.4939C70.6075 94.1398 68.9702 91.4547 67.8273 88.4293C66.5967 85.1767 65.7727 81.9329 65.2604 78.4404C63.6123 67.1733 65.3177 56.692 69.0508 45.7669C52.936 51.975 37.4087 58.6451 22.5227 66.9012L15.3807 70.8627C14.528 71.3353 13.8491 72.0389 12.837 72.2966C10.8397 72.805 8.57901 70.9576 8.9122 68.8327C9.08417 67.7408 10.0891 66.7204 10.9991 66.1654C14.2074 64.2088 17.3834 62.5243 20.7547 60.8559L30.7038 55.9312L44.8822 49.3149C53.3426 45.3677 61.7601 41.4992 70.6093 38.5938L73.4915 37.6486C74.715 37.2458 75.9009 37.6862 76.7518 38.4363C79.007 40.4287 77.1459 43.9517 76.0245 46.4328C72.5798 54.0606 71.4548 59.2448 70.869 67.6029C70.3621 74.8333 72.2842 88.7337 78.9121 93.0568C80.0872 93.823 81.4056 93.6762 82.3407 92.663C83.6144 91.281 84.5441 89.7254 85.4594 88.057L90.1384 79.5252C90.7546 78.401 92.1913 76.0201 93.4309 76.0147C94.6705 76.0094 95.2544 77.8693 95.1326 79.1797C94.6293 84.6575 91.3493 90.8693 88.279 95.4807L88.2772 95.4789Z" fill="white" fill-opacity="0.4"/>
<path d="M25.0897 31.7662C23.696 32.5235 22.3705 32.3731 21.0359 31.8414L12.5629 47.2509L7.55076 55.5195C6.44551 57.3419 5.351 59.0926 3.9251 60.659C3.41816 61.2157 2.4795 61.5165 1.83462 61.3768C1.18974 61.2372 0.358559 60.7413 0.138225 59.9179C-0.501281 57.5316 1.21482 54.5564 2.48845 52.4118C6.27891 46.0229 10.0873 39.7896 13.3815 33.1214L17.9638 23.8467C19.5706 20.594 20.8604 17.3431 22.2612 13.9938C23.4506 11.1493 24.2442 8.35665 24.9142 5.34744C25.267 3.76496 27.3289 3.00236 28.6616 3.38724C30.3007 3.85984 31.2985 5.43874 30.9904 7.22708C30.4135 10.5693 29.3262 13.7521 27.9791 16.8831L24.4824 25.0031C32.3858 21.0487 40.1082 17.7047 48.2033 14.7152L54.8975 12.243C59.6212 10.4994 64.3038 8.98499 69.2048 7.78381C70.1041 7.56362 71.118 7.41325 71.9778 7.64418C73.2819 7.99505 74.0844 9.28931 74.0898 10.5836C74.0952 11.6612 73.273 13.079 72.0208 13.4174L65.3642 15.2236C59.7574 16.7452 54.4443 18.7663 49.0058 20.8607C40.7764 24.0293 32.8784 27.5361 25.0933 31.768L25.0897 31.7662Z" fill="url(#paint1_linear_1403_2126)"/>
<path d="M25.0897 31.7662C23.696 32.5235 22.3705 32.3731 21.0359 31.8414L12.5629 47.2509L7.55076 55.5195C6.44551 57.3419 5.351 59.0926 3.9251 60.659C3.41816 61.2157 2.4795 61.5165 1.83462 61.3768C1.18974 61.2372 0.358559 60.7413 0.138225 59.9179C-0.501281 57.5316 1.21482 54.5564 2.48845 52.4118C6.27891 46.0229 10.0873 39.7896 13.3815 33.1214L17.9638 23.8467C19.5706 20.594 20.8604 17.3431 22.2612 13.9938C23.4506 11.1493 24.2442 8.35665 24.9142 5.34744C25.267 3.76496 27.3289 3.00236 28.6616 3.38724C30.3007 3.85984 31.2985 5.43874 30.9904 7.22708C30.4135 10.5693 29.3262 13.7521 27.9791 16.8831L24.4824 25.0031C32.3858 21.0487 40.1082 17.7047 48.2033 14.7152L54.8975 12.243C59.6212 10.4994 64.3038 8.98499 69.2048 7.78381C70.1041 7.56362 71.118 7.41325 71.9778 7.64418C73.2819 7.99505 74.0844 9.28931 74.0898 10.5836C74.0952 11.6612 73.273 13.079 72.0208 13.4174L65.3642 15.2236C59.7574 16.7452 54.4443 18.7663 49.0058 20.8607C40.7764 24.0293 32.8784 27.5361 25.0933 31.768L25.0897 31.7662Z" fill="white" fill-opacity="0.4"/>
<path d="M8.53958 116.91C7.45045 117.621 6.18398 117.431 5.41191 116.679C4.58611 115.876 4.36219 114.58 5.05902 113.502C7.20504 110.185 11.189 107.297 13.9082 104.118L27.7624 87.9191C25.9943 86.6302 24.2603 85.6063 22.4385 84.5429C20.4716 83.3955 18.5567 81.9007 19.6835 79.4214C20.022 78.6767 21.0252 77.8496 22.2074 77.8604C23.782 77.8747 25.3745 78.7733 26.7664 79.6326L31.723 82.6937C35.2663 78.4744 38.4602 74.2712 41.561 69.8549C43.8055 66.6577 43.6121 63.9886 46.0232 63.4319C47.2378 63.1526 48.472 63.4444 49.2781 64.5078C50.9171 66.6667 49.1025 70.1288 47.7268 72.0961C44.3573 76.9134 40.7997 81.4657 37.0773 86.1469C40.3501 88.4419 43.5046 90.6867 46.4746 93.2484C47.2431 93.9107 47.8468 94.7163 48.334 95.529C48.7962 96.5834 48.8714 97.5805 48.2982 98.5114C47.2306 100.246 44.8302 99.9506 43.5798 99.0215L37.0218 94.1434C35.7248 93.1786 34.4243 92.2924 32.9895 91.3902L18.2719 108.294C16.6203 110.192 14.863 111.773 13.0519 113.484C11.6852 114.777 10.1572 115.861 8.54316 116.916L8.53958 116.91Z" fill="url(#paint2_linear_1403_2126)"/>
<path d="M8.53958 116.91C7.45045 117.621 6.18398 117.431 5.41191 116.679C4.58611 115.876 4.36219 114.58 5.05902 113.502C7.20504 110.185 11.189 107.297 13.9082 104.118L27.7624 87.9191C25.9943 86.6302 24.2603 85.6063 22.4385 84.5429C20.4716 83.3955 18.5567 81.9007 19.6835 79.4214C20.022 78.6767 21.0252 77.8496 22.2074 77.8604C23.782 77.8747 25.3745 78.7733 26.7664 79.6326L31.723 82.6937C35.2663 78.4744 38.4602 74.2712 41.561 69.8549C43.8055 66.6577 43.6121 63.9886 46.0232 63.4319C47.2378 63.1526 48.472 63.4444 49.2781 64.5078C50.9171 66.6667 49.1025 70.1288 47.7268 72.0961C44.3573 76.9134 40.7997 81.4657 37.0773 86.1469C40.3501 88.4419 43.5046 90.6867 46.4746 93.2484C47.2431 93.9107 47.8468 94.7163 48.334 95.529C48.7962 96.5834 48.8714 97.5805 48.2982 98.5114C47.2306 100.246 44.8302 99.9506 43.5798 99.0215L37.0218 94.1434C35.7248 93.1786 34.4243 92.2924 32.9895 91.3902L18.2719 108.294C16.6203 110.192 14.863 111.773 13.0519 113.484C11.6852 114.777 10.1572 115.861 8.54316 116.916L8.53958 116.91Z" fill="white" fill-opacity="0.4"/>
<path d="M32.0168 45.3157C30.8524 45.9351 29.9138 46.3862 28.658 45.8761C27.8716 45.5556 26.8416 44.7859 26.6016 43.7136C26.2397 42.0917 27.2106 40.7276 28.59 40.0402L32.4252 38.1284L38.6841 35.2337C45.3425 32.1547 52.0743 29.5679 59.005 27.1405C61.0507 26.4245 63.2666 27.3535 63.632 29.6037C63.8756 31.1003 62.7077 32.527 61.3176 32.9764C59.2809 33.6333 57.4394 34.2295 55.4223 34.9974C47.433 38.0371 39.6353 41.27 32.0186 45.3157H32.0168Z" fill="url(#paint3_linear_1403_2126)"/>
<path d="M32.0168 45.3157C30.8524 45.9351 29.9138 46.3862 28.658 45.8761C27.8716 45.5556 26.8416 44.7859 26.6016 43.7136C26.2397 42.0917 27.2106 40.7276 28.59 40.0402L32.4252 38.1284L38.6841 35.2337C45.3425 32.1547 52.0743 29.5679 59.005 27.1405C61.0507 26.4245 63.2666 27.3535 63.632 29.6037C63.8756 31.1003 62.7077 32.527 61.3176 32.9764C59.2809 33.6333 57.4394 34.2295 55.4223 34.9974C47.433 38.0371 39.6353 41.27 32.0186 45.3157H32.0168Z" fill="white" fill-opacity="0.4"/>
<path d="M119.062 101.3C116.289 99.013 113.251 93.3135 114.114 90.0395C114.286 89.3877 114.901 88.4999 115.693 88.6759C117.615 89.1049 118.635 91.6653 120.364 92.9333L122.099 80.5677L123.543 68.4232L118.579 71.8096C115.815 73.6957 113.196 75.7092 110.832 78.0673C109.527 79.3709 107.736 79.7136 106.335 78.5992C104.934 77.4848 104.513 75.6024 105.657 73.9729C108.13 70.4442 120.145 63.1376 124.213 60.1913C124.532 58.1011 124.844 56.0988 125.056 53.9674L126.266 41.8116C126.388 40.5885 126.603 39.4853 126.599 38.2042C121.952 40.1821 117.641 42.4184 113.53 45.1849C112.385 45.9547 111.102 46.2618 109.868 45.5576C108.855 44.9807 107.896 43.812 108.118 42.3566C108.246 41.5194 108.813 40.4331 109.538 39.9255C111.868 38.2978 114.224 36.9755 116.77 35.7375L127.261 30.6354C127.427 29.4292 127.545 28.281 127.613 27.0692L127.822 23.3494C128.023 19.7945 127.051 15.8087 131.111 15.2562C132.702 15.3442 134.243 16.5167 134.38 18.2249C134.633 21.3828 134.348 24.4264 134.14 27.7379L143.076 24.2166C145.069 23.4318 147.257 24.4021 147.777 26.3893C148.146 28.4084 146.768 29.757 145.013 30.4444L136.036 33.9581C135.191 34.2896 134.415 34.6979 133.603 35.1306L132.383 46.6477L131.51 55.5295L139.499 50.5904C141.497 49.3542 143.398 48.221 145.575 47.2957C146.022 47.1047 147.011 47.1365 147.405 47.3332C149.594 48.4195 146.133 51.9895 145.181 52.8998C142.88 55.1005 140.4 56.9586 137.776 58.7716L130.771 63.6133L129.963 70.2681L128.145 86.0294L126.972 94.4148L126.485 97.288C126.244 98.7133 125.861 100.199 124.816 101.264C123.235 102.877 120.804 102.74 119.061 101.302L119.062 101.3Z" fill="url(#paint4_linear_1403_2126)"/>
<path d="M119.062 101.3C116.289 99.013 113.251 93.3135 114.114 90.0395C114.286 89.3877 114.901 88.4999 115.693 88.6759C117.615 89.1049 118.635 91.6653 120.364 92.9333L122.099 80.5677L123.543 68.4232L118.579 71.8096C115.815 73.6957 113.196 75.7092 110.832 78.0673C109.527 79.3709 107.736 79.7136 106.335 78.5992C104.934 77.4848 104.513 75.6024 105.657 73.9729C108.13 70.4442 120.145 63.1376 124.213 60.1913C124.532 58.1011 124.844 56.0988 125.056 53.9674L126.266 41.8116C126.388 40.5885 126.603 39.4853 126.599 38.2042C121.952 40.1821 117.641 42.4184 113.53 45.1849C112.385 45.9547 111.102 46.2618 109.868 45.5576C108.855 44.9807 107.896 43.812 108.118 42.3566C108.246 41.5194 108.813 40.4331 109.538 39.9255C111.868 38.2978 114.224 36.9755 116.77 35.7375L127.261 30.6354C127.427 29.4292 127.545 28.281 127.613 27.0692L127.822 23.3494C128.023 19.7945 127.051 15.8087 131.111 15.2562C132.702 15.3442 134.243 16.5167 134.38 18.2249C134.633 21.3828 134.348 24.4264 134.14 27.7379L143.076 24.2166C145.069 23.4318 147.257 24.4021 147.777 26.3893C148.146 28.4084 146.768 29.757 145.013 30.4444L136.036 33.9581C135.191 34.2896 134.415 34.6979 133.603 35.1306L132.383 46.6477L131.51 55.5295L139.499 50.5904C141.497 49.3542 143.398 48.221 145.575 47.2957C146.022 47.1047 147.011 47.1365 147.405 47.3332C149.594 48.4195 146.133 51.9895 145.181 52.8998C142.88 55.1005 140.4 56.9586 137.776 58.7716L130.771 63.6133L129.963 70.2681L128.145 86.0294L126.972 94.4148L126.485 97.288C126.244 98.7133 125.861 100.199 124.816 101.264C123.235 102.877 120.804 102.74 119.061 101.302L119.062 101.3Z" fill="white" fill-opacity="0.4"/>
<path d="M168.654 84.5085C169.721 84.4505 170.658 85.003 171.566 85.4038L178.334 88.3931C178.511 88.4718 179.049 88.4381 179.218 88.3575C180.163 87.9099 181.405 77.26 181.54 75.5687L182.641 61.6467L183.046 55.4602C183.123 54.2802 183.173 53.1863 183.059 51.9071C172.767 55.7411 162.486 60.1876 152.969 65.5238C151.585 66.2992 150.347 67.1215 149.04 67.9962C148.066 68.648 146.835 68.8727 145.835 68.2603C144.915 67.6965 144.194 66.848 144.041 65.964C143.846 64.8327 144.2 63.6489 145.095 62.8904C148.146 60.3019 159.716 54.8271 163.844 53.0234L171.403 49.7175L183.496 44.874L183.625 37.5693C183.647 36.2806 184.719 35.3235 185.751 34.8721C186.783 34.4207 187.886 34.5762 188.805 35.2318C190.877 36.7096 189.8 39.6333 190.246 42.2817L199.534 39.0508C200.19 38.8223 200.98 38.7343 201.714 38.7642C203.606 38.8429 205.046 40.641 204.63 42.4821C204.318 43.8663 203.177 44.7447 201.907 45.1755L197.02 46.835L189.987 49.3654L189.815 53.1732L189.319 60.9012L188.519 71.8339L187.867 78.8577L187.569 81.39C187.202 84.5254 186.756 87.5746 185.964 90.6332C185.635 91.905 185.103 93.0719 184.327 94.1039C183.08 95.7634 180.928 96.5145 178.912 95.814C174.574 94.3062 169.437 91.167 167.425 86.9153C166.998 86.0126 167.376 84.5797 168.652 84.5104L168.654 84.5085Z" fill="url(#paint5_linear_1403_2126)"/>
<path d="M168.654 84.5085C169.721 84.4505 170.658 85.003 171.566 85.4038L178.334 88.3931C178.511 88.4718 179.049 88.4381 179.218 88.3575C180.163 87.9099 181.405 77.26 181.54 75.5687L182.641 61.6467L183.046 55.4602C183.123 54.2802 183.173 53.1863 183.059 51.9071C172.767 55.7411 162.486 60.1876 152.969 65.5238C151.585 66.2992 150.347 67.1215 149.04 67.9962C148.066 68.648 146.835 68.8727 145.835 68.2603C144.915 67.6965 144.194 66.848 144.041 65.964C143.846 64.8327 144.2 63.6489 145.095 62.8904C148.146 60.3019 159.716 54.8271 163.844 53.0234L171.403 49.7175L183.496 44.874L183.625 37.5693C183.647 36.2806 184.719 35.3235 185.751 34.8721C186.783 34.4207 187.886 34.5762 188.805 35.2318C190.877 36.7096 189.8 39.6333 190.246 42.2817L199.534 39.0508C200.19 38.8223 200.98 38.7343 201.714 38.7642C203.606 38.8429 205.046 40.641 204.63 42.4821C204.318 43.8663 203.177 44.7447 201.907 45.1755L197.02 46.835L189.987 49.3654L189.815 53.1732L189.319 60.9012L188.519 71.8339L187.867 78.8577L187.569 81.39C187.202 84.5254 186.756 87.5746 185.964 90.6332C185.635 91.905 185.103 93.0719 184.327 94.1039C183.08 95.7634 180.928 96.5145 178.912 95.814C174.574 94.3062 169.437 91.167 167.425 86.9153C166.998 86.0126 167.376 84.5797 168.652 84.5104L168.654 84.5085Z" fill="white" fill-opacity="0.4"/>
<path d="M185.605 32.6751L177.783 35.6607C170.66 38.3784 163.889 41.6037 157.165 45.1568C156.142 45.6981 154.812 45.3797 153.928 44.7672C153.14 44.2203 152.413 43.1995 152.507 41.9933C152.585 40.9856 153.247 40.1109 153.996 39.4011L170.739 31.527L172.194 18.4216C168.401 19.8863 164.93 21.5963 161.463 23.6023C160.377 24.0874 159.343 24.1342 158.281 23.5311C157.491 23.0835 156.676 22.3286 156.569 21.143C156.442 19.7102 157.362 18.4347 158.6 17.7848C160.439 16.8202 162.186 15.9005 164.078 15.0296L173.029 10.9127C173.411 8.27553 173.409 5.84063 173.496 3.29709C173.556 1.49339 175.018 0.0324542 176.678 0.000613193C178.47 -0.0331008 179.937 1.3267 180.057 3.26713C180.16 4.92099 180.01 6.53177 179.957 8.41975L187.009 5.92304C188.862 5.26749 191.486 4.41902 192.832 6.39878C193.6 7.5282 193.608 8.81121 192.87 9.91628C192.256 10.8378 191.36 11.3472 190.287 11.6694C186.485 12.8082 182.829 14.1568 179.197 15.6626L177.654 28.7549L188.616 24.801C189.676 24.4189 190.744 24.2653 191.825 24.4358C193.372 24.9265 194.477 26.2751 194.181 27.9027C193.913 29.3786 192.746 30.2608 191.401 30.716L185.605 32.6751Z" fill="url(#paint6_linear_1403_2126)"/>
<path d="M185.605 32.6751L177.783 35.6607C170.66 38.3784 163.889 41.6037 157.165 45.1568C156.142 45.6981 154.812 45.3797 153.928 44.7672C153.14 44.2203 152.413 43.1995 152.507 41.9933C152.585 40.9856 153.247 40.1109 153.996 39.4011L170.739 31.527L172.194 18.4216C168.401 19.8863 164.93 21.5963 161.463 23.6023C160.377 24.0874 159.343 24.1342 158.281 23.5311C157.491 23.0835 156.676 22.3286 156.569 21.143C156.442 19.7102 157.362 18.4347 158.6 17.7848C160.439 16.8202 162.186 15.9005 164.078 15.0296L173.029 10.9127C173.411 8.27553 173.409 5.84063 173.496 3.29709C173.556 1.49339 175.018 0.0324542 176.678 0.000613193C178.47 -0.0331008 179.937 1.3267 180.057 3.26713C180.16 4.92099 180.01 6.53177 179.957 8.41975L187.009 5.92304C188.862 5.26749 191.486 4.41902 192.832 6.39878C193.6 7.5282 193.608 8.81121 192.87 9.91628C192.256 10.8378 191.36 11.3472 190.287 11.6694C186.485 12.8082 182.829 14.1568 179.197 15.6626L177.654 28.7549L188.616 24.801C189.676 24.4189 190.744 24.2653 191.825 24.4358C193.372 24.9265 194.477 26.2751 194.181 27.9027C193.913 29.3786 192.746 30.2608 191.401 30.716L185.605 32.6751Z" fill="white" fill-opacity="0.4"/>
<path d="M172.467 75.7822C172.396 77.7826 170.343 78.9157 168.564 78.4231L162.464 76.7299C160.976 76.3179 159.448 76.0088 158.12 75.2952C156.792 74.5816 156.183 73.1038 156.506 71.8283C157.232 68.9532 160.224 69.1649 162.587 69.8429C165.168 70.5828 167.693 71.287 170.072 72.4501C171.359 73.0795 172.524 74.1733 172.467 75.7822Z" fill="url(#paint7_linear_1403_2126)"/>
<path d="M172.467 75.7822C172.396 77.7826 170.343 78.9157 168.564 78.4231L162.464 76.7299C160.976 76.3179 159.448 76.0088 158.12 75.2952C156.792 74.5816 156.183 73.1038 156.506 71.8283C157.232 68.9532 160.224 69.1649 162.587 69.8429C165.168 70.5828 167.693 71.287 170.072 72.4501C171.359 73.0795 172.524 74.1733 172.467 75.7822Z" fill="white" fill-opacity="0.4"/>
<path d="M251.85 84.6353C257.25 79.3522 262.202 73.921 266.227 67.6322C268.144 64.6381 269.569 61.6165 270.298 58.1523C270.497 57.2037 270.423 55.9692 270.323 54.9889C270.115 52.9434 268.436 51.5057 266.443 51.2558C257.725 50.1696 248.025 56.0561 241.844 61.8515C239.66 63.8991 237.85 66.133 235.908 68.4008C234.705 69.8047 233.093 70.5309 231.293 70.0228C228.54 69.2457 227.759 66.421 228.263 63.9309C229.027 60.1618 229.98 56.6193 230.982 52.9244L233.203 44.7171L236.147 34.5576L237.837 29.0819L233.362 30.7589C229.211 32.3152 225.264 34.2421 221.321 36.2389C220.158 36.8275 219.118 37.4988 217.805 37.0393C216.35 36.529 215.266 35.4597 215.08 34.0579C214.879 32.5312 215.55 30.994 217.07 30.2147C223.271 27.0322 229.671 24.4405 236.17 21.8614C237.831 21.2029 239.319 20.5867 240.886 19.8646L246.011 6.76824C246.774 4.82019 248.917 3.93297 250.698 4.61056C252.479 5.28814 253.614 7.34418 252.843 9.34729L249.953 16.8515L267.703 11.2932C268.777 10.9565 269.863 10.5585 270.969 10.5585C272.811 10.5585 273.953 12.0746 274.353 13.7622C274.357 15.8034 272.945 17.2348 270.98 17.7959C262.85 20.1187 254.923 22.6893 246.846 25.5627C244.438 32.383 242.305 39.1292 240.49 46.0892L238.131 55.1329C242.399 51.7682 246.509 49.0579 251.304 46.9193C257.892 43.9824 267.551 41.632 273.669 46.5784C277.866 49.9705 278.697 55.5987 277.443 60.6276C276.276 65.3157 274.042 69.5082 271.255 73.4848C267.081 79.4412 262.369 84.7919 257.013 89.6917C254.434 92.0506 251.822 94.1003 248.695 95.574C247.684 96.0504 246.496 95.6672 245.831 95.0383C243.834 93.1559 246.617 90.1089 248.013 88.5674C249.258 87.191 250.431 86.0201 251.848 84.6331L251.85 84.6353Z" fill="url(#paint8_linear_1403_2126)"/>
<path d="M251.85 84.6353C257.25 79.3522 262.202 73.921 266.227 67.6322C268.144 64.6381 269.569 61.6165 270.298 58.1523C270.497 57.2037 270.423 55.9692 270.323 54.9889C270.115 52.9434 268.436 51.5057 266.443 51.2558C257.725 50.1696 248.025 56.0561 241.844 61.8515C239.66 63.8991 237.85 66.133 235.908 68.4008C234.705 69.8047 233.093 70.5309 231.293 70.0228C228.54 69.2457 227.759 66.421 228.263 63.9309C229.027 60.1618 229.98 56.6193 230.982 52.9244L233.203 44.7171L236.147 34.5576L237.837 29.0819L233.362 30.7589C229.211 32.3152 225.264 34.2421 221.321 36.2389C220.158 36.8275 219.118 37.4988 217.805 37.0393C216.35 36.529 215.266 35.4597 215.08 34.0579C214.879 32.5312 215.55 30.994 217.07 30.2147C223.271 27.0322 229.671 24.4405 236.17 21.8614C237.831 21.2029 239.319 20.5867 240.886 19.8646L246.011 6.76824C246.774 4.82019 248.917 3.93297 250.698 4.61056C252.479 5.28814 253.614 7.34418 252.843 9.34729L249.953 16.8515L267.703 11.2932C268.777 10.9565 269.863 10.5585 270.969 10.5585C272.811 10.5585 273.953 12.0746 274.353 13.7622C274.357 15.8034 272.945 17.2348 270.98 17.7959C262.85 20.1187 254.923 22.6893 246.846 25.5627C244.438 32.383 242.305 39.1292 240.49 46.0892L238.131 55.1329C242.399 51.7682 246.509 49.0579 251.304 46.9193C257.892 43.9824 267.551 41.632 273.669 46.5784C277.866 49.9705 278.697 55.5987 277.443 60.6276C276.276 65.3157 274.042 69.5082 271.255 73.4848C267.081 79.4412 262.369 84.7919 257.013 89.6917C254.434 92.0506 251.822 94.1003 248.695 95.574C247.684 96.0504 246.496 95.6672 245.831 95.0383C243.834 93.1559 246.617 90.1089 248.013 88.5674C249.258 87.191 250.431 86.0201 251.848 84.6331L251.85 84.6353Z" fill="white" fill-opacity="0.4"/>
<defs>
<linearGradient id="paint0_linear_1403_2126" x1="47.5742" y1="117.355" x2="47.5742" y2="3.28882" gradientUnits="userSpaceOnUse">
<stop stop-color="#7FCDFE"/>
<stop offset="1" stop-color="#B99CE0"/>
</linearGradient>
<linearGradient id="paint1_linear_1403_2126" x1="47.5742" y1="117.355" x2="47.5742" y2="3.28882" gradientUnits="userSpaceOnUse">
<stop stop-color="#7FCDFE"/>
<stop offset="1" stop-color="#B99CE0"/>
</linearGradient>
<linearGradient id="paint2_linear_1403_2126" x1="47.5742" y1="117.355" x2="47.5742" y2="3.28882" gradientUnits="userSpaceOnUse">
<stop stop-color="#7FCDFE"/>
<stop offset="1" stop-color="#B99CE0"/>
</linearGradient>
<linearGradient id="paint3_linear_1403_2126" x1="47.5742" y1="117.355" x2="47.5742" y2="3.28882" gradientUnits="userSpaceOnUse">
<stop stop-color="#7FCDFE"/>
<stop offset="1" stop-color="#B99CE0"/>
</linearGradient>
<linearGradient id="paint4_linear_1403_2126" x1="154.85" y1="102.428" x2="154.85" y2="0" gradientUnits="userSpaceOnUse">
<stop stop-color="#7FCDFE"/>
<stop offset="1" stop-color="#B99CE0"/>
</linearGradient>
<linearGradient id="paint5_linear_1403_2126" x1="154.85" y1="102.428" x2="154.85" y2="0" gradientUnits="userSpaceOnUse">
<stop stop-color="#7FCDFE"/>
<stop offset="1" stop-color="#B99CE0"/>
</linearGradient>
<linearGradient id="paint6_linear_1403_2126" x1="154.85" y1="102.428" x2="154.85" y2="0" gradientUnits="userSpaceOnUse">
<stop stop-color="#7FCDFE"/>
<stop offset="1" stop-color="#B99CE0"/>
</linearGradient>
<linearGradient id="paint7_linear_1403_2126" x1="154.85" y1="102.428" x2="154.85" y2="0" gradientUnits="userSpaceOnUse">
<stop stop-color="#7FCDFE"/>
<stop offset="1" stop-color="#B99CE0"/>
</linearGradient>
<linearGradient id="paint8_linear_1403_2126" x1="246.511" y1="95.7875" x2="246.511" y2="4.3851" gradientUnits="userSpaceOnUse">
<stop stop-color="#7FCDFE"/>
<stop offset="1" stop-color="#B99CE0"/>
</linearGradient>
</defs>
</svg>
