<svg width="200" height="55" viewBox="0 0 200 55" fill="none" xmlns="http://www.w3.org/2000/svg">
<path d="M1.38217 10.4313C1.37068 10.65 1.65907 10.7389 1.76908 10.5497C2.47624 9.33365 4.06702 6.93856 6.46257 5.23138C9.25307 3.24274 11.7033 2.27786 12.7512 1.974C12.7802 1.96561 12.8264 1.94869 12.8467 1.93121C12.9246 1.86393 12.9471 1.75383 12.8743 1.67945C12.8579 1.66271 12.8164 1.62815 12.7932 1.61488C11.7091 0.995068 8.46122 -0.805749 5.78511 0.414924C3.63875 1.39396 1.62008 5.90253 1.38217 10.4313Z" fill="#807575"/>
<path d="M37.1162 10.3375C37.1302 10.5798 36.8105 10.6785 36.6875 10.4694C35.9583 9.23072 34.3848 6.90177 32.0409 5.23138C29.2504 3.24274 26.8002 2.27786 25.7523 1.974C25.7233 1.96561 25.6771 1.94869 25.6568 1.93121C25.5789 1.86393 25.5564 1.75383 25.6292 1.67945C25.6456 1.66271 25.6871 1.62815 25.7103 1.61488C26.7944 0.995068 30.0423 -0.805749 32.7184 0.414924C34.8499 1.3872 36.8555 5.84046 37.1162 10.3375Z" fill="#807575"/>
<path d="M0.605753 54.1343C-0.168748 54.1343 -0.216667 52.9922 0.555192 52.9284C19.0585 51.3997 55.3861 48.0742 98.8212 48.0742C142.255 48.0742 180.03 51.3995 199.443 52.9282C200.216 52.9892 200.17 54.1343 199.394 54.1343C199.394 54.1343 136.795 52.3588 98.8338 52.3588C61.7527 52.3588 0.605753 54.1343 0.605753 54.1343Z" fill="#807575"/>
<path d="M19.1252 40.6861C9.15549 40.6861 0.726097 32.9026 0.0440387 22.7754C-0.667116 12.2098 7.31966 3.03318 17.8482 2.3193C25.4858 1.80261 33.1133 5.67579 36.1722 12.7174C37.8961 16.6859 37.2577 19.0795 33.0539 19.0795C29.2389 19.0795 29.4493 18.7229 28.3239 16.6935C26.3221 13.0837 22.5504 10.8458 18.4408 11.1214C12.4353 11.5287 7.95923 17.0294 8.92238 23.1313C9.25668 25.2492 10.2501 27.2243 11.7506 28.751C13.9043 30.9423 16.8131 32.0451 19.8359 31.8398C22.9283 31.6301 25.8246 30.1175 27.5494 27.528C28.4139 26.2301 30.2269 26.2136 32.4941 26.2136C37.5892 26.2136 36.1073 30.6925 34.6919 32.6719C31.3467 37.3493 26.1481 40.2541 20.4286 40.6418C19.9917 40.6715 19.5569 40.6861 19.1252 40.6861Z" fill="#807575"/>
<path d="M71.5896 35.1973C71.1132 33.7634 71.1748 32.1126 72.9499 31.0786C74.7774 30.0142 77.5647 30.8966 79.8319 32.7852C80.6774 33.4884 81.7868 33.7398 83.1077 33.7398C84.6927 33.7398 85.6967 33.2874 85.6967 32.4333C85.6967 31.9307 85.4853 31.5791 83.8475 31.0262L80.6774 29.9206C79.1451 29.368 72.0123 27.6591 72.0123 21.8803C72.0123 16.6037 76.926 13.1865 83.3191 13.1865C87.1232 13.1865 90.2933 14.242 92.5125 16.9055C93.2287 17.7569 94.3706 19.3115 93.1541 20.9422C91.421 23.2656 86.3835 21.3277 85.1683 20.4732C84.5871 20.0712 83.9003 19.9206 83.2134 19.9206C82.051 19.9206 81.4698 20.5236 81.4698 21.1768C81.4698 21.8299 82.051 22.1317 83.3191 22.5337L86.3835 23.7398C92.4068 25.7499 95.1014 28.564 95.207 32.1821C95.207 38.1116 89.5536 40.7247 83.1077 40.7247C77.5071 40.7247 73.4388 38.966 71.5896 35.1973Z" fill="#807575"/>
<path d="M173.163 17.0567C173.163 17.7209 172.909 18.4602 172.401 19.275L163.325 38.5605C162.564 39.828 161.378 40.4617 159.771 40.4617C157.824 40.4617 156.575 39.828 156.026 38.5605L147.331 19.9541C146.654 18.596 146.315 17.6304 146.315 17.0567C146.315 14.5217 147.648 13.2539 150.314 13.2539C152.302 13.2539 153.678 14.175 154.439 16.0155L159.771 27.4238L164.912 15.8344C165.588 14.114 166.921 13.2539 168.91 13.2539C171.745 13.2539 173.163 14.5217 173.163 17.0567Z" fill="#807575"/>
<path d="M102.961 36.0947V7.41772C102.961 4.69742 104.664 2.49219 107.869 2.49219H109.048C112.008 2.49219 112.827 5.08127 112.875 7.51689C112.988 13.2911 112.875 30.5259 112.875 30.5259C112.875 31.2574 113.466 31.8505 114.195 31.8505H125.617C129.11 31.8505 129.846 33.7508 129.846 36.0948C129.846 38.4388 127.953 40.339 125.617 40.339H107.19C104.855 40.339 102.961 38.4388 102.961 36.0947Z" fill="#807575"/>
<path d="M133.241 37.7137C133.173 36.7167 133.241 18.2401 133.241 18.2401C133.241 16.4545 135.05 15.1031 136.581 15.0069C137.566 14.945 138.019 14.9411 138.961 15.0069C140.457 15.1114 142.301 16.4545 142.301 18.2403C142.301 18.2403 142.343 36.7243 142.301 37.7137C142.24 39.1657 141.189 40.1245 139.583 40.3449C138.297 40.5215 137.554 40.5058 135.959 40.3449C134.813 40.2294 133.34 39.1638 133.241 37.7137Z" fill="#807575"/>
<path d="M174.229 26.9581C174.229 19.6795 179.226 13.1592 187.805 13.1592C195.16 13.1592 200.911 19.8452 199.88 26.4425C199.655 27.8784 197.698 29.5506 195.806 29.5506L182.686 29.5147C182.402 29.5139 182.193 29.7732 182.242 30.0539C182.604 32.1031 185.049 33.5796 189.173 33.5796C190.587 33.5796 192.284 33.2764 194.028 32.2657C195.443 31.5073 197.443 32.5946 198.116 33.8594C198.547 34.6686 198.589 36.1505 196.958 37.886C196.937 37.9086 196.912 37.9299 196.887 37.948C194.121 39.9481 191.61 40.555 188.513 40.555C179.556 40.555 174.229 34.4895 174.229 26.9581ZM192.736 23.5928C193.026 23.5928 193.242 23.3216 193.176 23.0385C192.569 20.4114 190.149 19.3471 187.853 19.3471C185.563 19.3471 183.15 20.4494 182.457 23.0248C182.381 23.3111 182.598 23.5928 182.894 23.5928H192.736Z" fill="#807575"/>
<path d="M63.0681 13.1699C61.1987 13.1593 58.9929 14.5163 58.5939 16.2343C56.5401 14.2996 54.5507 13.0742 51.6788 13.0742C45.1183 13.0742 39.7998 19.1404 39.7998 26.6235C39.7998 34.1066 45.1183 40.1727 51.6788 40.1727C54.5641 40.1727 56.0757 38.9637 58.1338 37.0126C58.5724 38.6756 61.2384 39.9406 63.0681 39.9406C65.7792 39.9406 66.9996 38.2108 66.9996 36.0773V17.0331C66.9996 14.8996 66.1273 13.1873 63.0681 13.1699ZM59.3094 28.2249C58.3694 29.0012 58.4496 29.019 55.381 30.9642C52.9343 32.5151 52.2565 32.7145 51.1894 33.1939C49.9457 33.7525 48.4372 32.8584 48.2763 31.4437C48.1356 30.2067 48.0893 29.5513 48.0893 26.4748C48.0893 24.0577 48.1072 22.7393 48.2763 21.5058C48.4664 20.1181 49.92 19.407 51.1894 19.904C52.2798 20.331 52.8596 20.5178 55.302 22.0141C57.9887 23.66 58.3267 23.9837 59.3094 24.7247C60.3988 25.5461 60.3616 27.356 59.3094 28.2249Z" fill="#807575"/>
<path d="M143.938 7.31271C140.992 8.82324 139.661 10.1591 138.156 13.1149C138.061 13.3001 137.798 13.3001 137.704 13.1149C136.198 10.1591 134.867 8.82324 131.922 7.31271C131.737 7.2181 131.737 6.95367 131.922 6.85906C134.867 5.34853 136.198 4.01266 137.704 1.05682C137.798 0.871684 138.061 0.871684 138.156 1.05682C139.661 4.01266 140.992 5.34853 143.938 6.85906C144.122 6.95367 144.122 7.2181 143.938 7.31271Z" fill="#807575"/>
<path d="M1.38217 10.4313C1.37068 10.65 1.65907 10.7389 1.76908 10.5497C2.47624 9.33365 4.06702 6.93856 6.46257 5.23138C9.25307 3.24274 11.7033 2.27786 12.7512 1.974C12.7802 1.96561 12.8264 1.94869 12.8467 1.93121C12.9246 1.86393 12.9471 1.75383 12.8743 1.67945C12.8579 1.66271 12.8164 1.62815 12.7932 1.61488C11.7091 0.995068 8.46122 -0.805749 5.78511 0.414924C3.63875 1.39396 1.62008 5.90253 1.38217 10.4313Z" fill="url(#paint0_linear_1403_4561)"/>
<path d="M37.1162 10.3375C37.1302 10.5798 36.8105 10.6785 36.6875 10.4694C35.9583 9.23072 34.3848 6.90177 32.0409 5.23138C29.2504 3.24274 26.8002 2.27786 25.7523 1.974C25.7233 1.96561 25.6771 1.94869 25.6568 1.93121C25.5789 1.86393 25.5564 1.75383 25.6292 1.67945C25.6456 1.66271 25.6871 1.62815 25.7103 1.61488C26.7944 0.995068 30.0423 -0.805749 32.7184 0.414924C34.8499 1.3872 36.8555 5.84046 37.1162 10.3375Z" fill="url(#paint1_linear_1403_4561)"/>
<path d="M0.605753 54.1343C-0.168748 54.1343 -0.216667 52.9922 0.555192 52.9284C19.0585 51.3997 55.3861 48.0742 98.8212 48.0742C142.255 48.0742 180.03 51.3995 199.443 52.9282C200.216 52.9892 200.17 54.1343 199.394 54.1343C199.394 54.1343 136.795 52.3588 98.8338 52.3588C61.7527 52.3588 0.605753 54.1343 0.605753 54.1343Z" fill="url(#paint2_linear_1403_4561)"/>
<path d="M0.605753 54.1343C-0.168748 54.1343 -0.216667 52.9922 0.555192 52.9284C19.0585 51.3997 55.3861 48.0742 98.8212 48.0742C142.255 48.0742 180.03 51.3995 199.443 52.9282C200.216 52.9892 200.17 54.1343 199.394 54.1343C199.394 54.1343 136.795 52.3588 98.8338 52.3588C61.7527 52.3588 0.605753 54.1343 0.605753 54.1343Z" fill="url(#paint3_linear_1403_4561)"/>
<path d="M19.1252 40.6861C9.15549 40.6861 0.726097 32.9026 0.0440387 22.7754C-0.667116 12.2098 7.31966 3.03318 17.8482 2.3193C25.4858 1.80261 33.1133 5.67579 36.1722 12.7174C37.8961 16.6859 37.2577 19.0795 33.0539 19.0795C29.2389 19.0795 29.4493 18.7229 28.3239 16.6935C26.3221 13.0837 22.5504 10.8458 18.4408 11.1214C12.4353 11.5287 7.95923 17.0294 8.92238 23.1313C9.25668 25.2492 10.2501 27.2243 11.7506 28.751C13.9043 30.9423 16.8131 32.0451 19.8359 31.8398C22.9283 31.6301 25.8246 30.1175 27.5494 27.528C28.4139 26.2301 30.2269 26.2136 32.4941 26.2136C37.5892 26.2136 36.1073 30.6925 34.6919 32.6719C31.3467 37.3493 26.1481 40.2541 20.4286 40.6418C19.9917 40.6715 19.5569 40.6861 19.1252 40.6861Z" fill="url(#paint4_linear_1403_4561)"/>
<path d="M71.5896 35.1973C71.1132 33.7634 71.1748 32.1126 72.9499 31.0786C74.7774 30.0142 77.5647 30.8966 79.8319 32.7852C80.6774 33.4884 81.7868 33.7398 83.1077 33.7398C84.6927 33.7398 85.6967 33.2874 85.6967 32.4333C85.6967 31.9307 85.4853 31.5791 83.8475 31.0262L80.6774 29.9206C79.1451 29.368 72.0123 27.6591 72.0123 21.8803C72.0123 16.6037 76.926 13.1865 83.3191 13.1865C87.1232 13.1865 90.2933 14.242 92.5125 16.9055C93.2287 17.7569 94.3706 19.3115 93.1541 20.9422C91.421 23.2656 86.3835 21.3277 85.1683 20.4732C84.5871 20.0712 83.9003 19.9206 83.2134 19.9206C82.051 19.9206 81.4698 20.5236 81.4698 21.1768C81.4698 21.8299 82.051 22.1317 83.3191 22.5337L86.3835 23.7398C92.4068 25.7499 95.1014 28.564 95.207 32.1821C95.207 38.1116 89.5536 40.7247 83.1077 40.7247C77.5071 40.7247 73.4388 38.966 71.5896 35.1973Z" fill="url(#paint5_linear_1403_4561)"/>
<path d="M173.163 17.0567C173.163 17.7209 172.909 18.4602 172.401 19.275L163.325 38.5605C162.564 39.828 161.378 40.4617 159.771 40.4617C157.824 40.4617 156.575 39.828 156.026 38.5605L147.331 19.9541C146.654 18.596 146.315 17.6304 146.315 17.0567C146.315 14.5217 147.648 13.2539 150.314 13.2539C152.302 13.2539 153.678 14.175 154.439 16.0155L159.771 27.4238L164.912 15.8344C165.588 14.114 166.921 13.2539 168.91 13.2539C171.745 13.2539 173.163 14.5217 173.163 17.0567Z" fill="url(#paint6_linear_1403_4561)"/>
<path d="M102.961 36.0947V7.41772C102.961 4.69742 104.664 2.49219 107.869 2.49219H109.048C112.008 2.49219 112.827 5.08127 112.875 7.51689C112.988 13.2911 112.875 30.5259 112.875 30.5259C112.875 31.2574 113.466 31.8505 114.195 31.8505H125.617C129.11 31.8505 129.846 33.7508 129.846 36.0948C129.846 38.4388 127.953 40.339 125.617 40.339H107.19C104.855 40.339 102.961 38.4388 102.961 36.0947Z" fill="url(#paint7_linear_1403_4561)"/>
<path d="M133.241 37.7137C133.173 36.7167 133.241 18.2401 133.241 18.2401C133.241 16.4545 135.05 15.1031 136.581 15.0069C137.566 14.945 138.019 14.9411 138.961 15.0069C140.457 15.1114 142.301 16.4545 142.301 18.2403C142.301 18.2403 142.343 36.7243 142.301 37.7137C142.24 39.1657 141.189 40.1245 139.583 40.3449C138.297 40.5215 137.554 40.5058 135.959 40.3449C134.813 40.2294 133.34 39.1638 133.241 37.7137Z" fill="url(#paint8_linear_1403_4561)"/>
<path d="M174.229 26.9581C174.229 19.6795 179.226 13.1592 187.805 13.1592C195.16 13.1592 200.911 19.8452 199.88 26.4425C199.655 27.8784 197.698 29.5506 195.806 29.5506L182.686 29.5147C182.402 29.5139 182.193 29.7732 182.242 30.0539C182.604 32.1031 185.049 33.5796 189.173 33.5796C190.587 33.5796 192.284 33.2764 194.028 32.2657C195.443 31.5073 197.443 32.5946 198.116 33.8594C198.547 34.6686 198.589 36.1505 196.958 37.886C196.937 37.9086 196.912 37.9299 196.887 37.948C194.121 39.9481 191.61 40.555 188.513 40.555C179.556 40.555 174.229 34.4895 174.229 26.9581ZM192.736 23.5928C193.026 23.5928 193.242 23.3216 193.176 23.0385C192.569 20.4114 190.149 19.3471 187.853 19.3471C185.563 19.3471 183.15 20.4494 182.457 23.0248C182.381 23.3111 182.598 23.5928 182.894 23.5928H192.736Z" fill="url(#paint9_linear_1403_4561)"/>
<path d="M63.0681 13.1699C61.1987 13.1593 58.9929 14.5163 58.5939 16.2343C56.5401 14.2996 54.5507 13.0742 51.6788 13.0742C45.1183 13.0742 39.7998 19.1404 39.7998 26.6235C39.7998 34.1066 45.1183 40.1727 51.6788 40.1727C54.5641 40.1727 56.0757 38.9637 58.1338 37.0126C58.5724 38.6756 61.2384 39.9406 63.0681 39.9406C65.7792 39.9406 66.9996 38.2108 66.9996 36.0773V17.0331C66.9996 14.8996 66.1273 13.1873 63.0681 13.1699ZM59.3094 28.2249C58.3694 29.0012 58.4496 29.019 55.381 30.9642C52.9343 32.5151 52.2565 32.7145 51.1894 33.1939C49.9457 33.7525 48.4372 32.8584 48.2763 31.4437C48.1356 30.2067 48.0893 29.5513 48.0893 26.4748C48.0893 24.0577 48.1072 22.7393 48.2763 21.5058C48.4664 20.1181 49.92 19.407 51.1894 19.904C52.2798 20.331 52.8596 20.5178 55.302 22.0141C57.9887 23.66 58.3267 23.9837 59.3094 24.7247C60.3988 25.5461 60.3616 27.356 59.3094 28.2249Z" fill="url(#paint10_linear_1403_4561)"/>
<path d="M143.938 7.31271C140.992 8.82324 139.661 10.1591 138.156 13.1149C138.061 13.3001 137.798 13.3001 137.704 13.1149C136.198 10.1591 134.867 8.82324 131.922 7.31271C131.737 7.2181 131.737 6.95367 131.922 6.85906C134.867 5.34853 136.198 4.01266 137.704 1.05682C137.798 0.871684 138.061 0.871684 138.156 1.05682C139.661 4.01266 140.992 5.34853 143.938 6.85906C144.122 6.95367 144.122 7.2181 143.938 7.31271Z" fill="url(#paint11_linear_1403_4561)"/>
<defs>
<linearGradient id="paint0_linear_1403_4561" x1="-2.10322" y1="4.18249" x2="198.734" y2="36.5633" gradientUnits="userSpaceOnUse">
<stop offset="1.9e-06" stop-color="#FF6E9B"/>
<stop offset="0.27964" stop-color="#E969DB"/>
<stop offset="0.657047" stop-color="#8D82EB"/>
<stop offset="1" stop-color="#4D85FF"/>
</linearGradient>
<linearGradient id="paint1_linear_1403_4561" x1="-1.35611" y1="-0.449574" x2="199.481" y2="31.9313" gradientUnits="userSpaceOnUse">
<stop offset="1.9e-06" stop-color="#FF6E9B"/>
<stop offset="0.27964" stop-color="#E969DB"/>
<stop offset="0.657047" stop-color="#8D82EB"/>
<stop offset="1" stop-color="#4D85FF"/>
</linearGradient>
<linearGradient id="paint2_linear_1403_4561" x1="-7.25208" y1="36.1175" x2="193.585" y2="68.4983" gradientUnits="userSpaceOnUse">
<stop offset="1.9e-06" stop-color="#FF6E9B"/>
<stop offset="0.27964" stop-color="#E969DB"/>
<stop offset="0.657047" stop-color="#8D82EB"/>
<stop offset="1" stop-color="#4D85FF"/>
</linearGradient>
<linearGradient id="paint3_linear_1403_4561" x1="-7.25208" y1="36.1175" x2="193.585" y2="68.4983" gradientUnits="userSpaceOnUse">
<stop offset="1.9e-06" stop-color="#FF6E9B"/>
<stop offset="0.27964" stop-color="#E969DB"/>
<stop offset="0.657047" stop-color="#8D82EB"/>
<stop offset="1" stop-color="#4D85FF"/>
</linearGradient>
<linearGradient id="paint4_linear_1403_4561" x1="-4.27724" y1="17.6659" x2="196.56" y2="50.0468" gradientUnits="userSpaceOnUse">
<stop offset="1.9e-06" stop-color="#FF6E9B"/>
<stop offset="0.27964" stop-color="#E969DB"/>
<stop offset="0.657047" stop-color="#8D82EB"/>
<stop offset="1" stop-color="#4D85FF"/>
</linearGradient>
<linearGradient id="paint5_linear_1403_4561" x1="-3.5106" y1="12.9093" x2="197.327" y2="45.2901" gradientUnits="userSpaceOnUse">
<stop offset="1.9e-06" stop-color="#FF6E9B"/>
<stop offset="0.27964" stop-color="#E969DB"/>
<stop offset="0.657047" stop-color="#8D82EB"/>
<stop offset="1" stop-color="#4D85FF"/>
</linearGradient>
<linearGradient id="paint6_linear_1403_4561" x1="-1.41917" y1="-0.0577531" x2="199.418" y2="32.3231" gradientUnits="userSpaceOnUse">
<stop offset="1.9e-06" stop-color="#FF6E9B"/>
<stop offset="0.27964" stop-color="#E969DB"/>
<stop offset="0.657047" stop-color="#8D82EB"/>
<stop offset="1" stop-color="#4D85FF"/>
</linearGradient>
<linearGradient id="paint7_linear_1403_4561" x1="-1.99867" y1="3.53447" x2="198.839" y2="35.9153" gradientUnits="userSpaceOnUse">
<stop offset="1.9e-06" stop-color="#FF6E9B"/>
<stop offset="0.27964" stop-color="#E969DB"/>
<stop offset="0.657047" stop-color="#8D82EB"/>
<stop offset="1" stop-color="#4D85FF"/>
</linearGradient>
<linearGradient id="paint8_linear_1403_4561" x1="-2.23401" y1="4.99122" x2="198.603" y2="37.3721" gradientUnits="userSpaceOnUse">
<stop offset="1.9e-06" stop-color="#FF6E9B"/>
<stop offset="0.27964" stop-color="#E969DB"/>
<stop offset="0.657047" stop-color="#8D82EB"/>
<stop offset="1" stop-color="#4D85FF"/>
</linearGradient>
<linearGradient id="paint9_linear_1403_4561" x1="-0.81969" y1="-3.78222" x2="200.018" y2="28.5986" gradientUnits="userSpaceOnUse">
<stop offset="1.9e-06" stop-color="#FF6E9B"/>
<stop offset="0.27964" stop-color="#E969DB"/>
<stop offset="0.657047" stop-color="#8D82EB"/>
<stop offset="1" stop-color="#4D85FF"/>
</linearGradient>
<linearGradient id="paint10_linear_1403_4561" x1="-4.12348" y1="16.7125" x2="196.714" y2="49.0934" gradientUnits="userSpaceOnUse">
<stop offset="1.9e-06" stop-color="#FF6E9B"/>
<stop offset="0.27964" stop-color="#E969DB"/>
<stop offset="0.657047" stop-color="#8D82EB"/>
<stop offset="1" stop-color="#4D85FF"/>
</linearGradient>
<linearGradient id="paint11_linear_1403_4561" x1="1.01278" y1="-15.1439" x2="201.85" y2="17.237" gradientUnits="userSpaceOnUse">
<stop offset="1.9e-06" stop-color="#FF6E9B"/>
<stop offset="0.27964" stop-color="#E969DB"/>
<stop offset="0.657047" stop-color="#8D82EB"/>
<stop offset="1" stop-color="#4D85FF"/>
</linearGradient>
</defs>
</svg>
