<svg width="145" height="41" viewBox="0 0 145 41" fill="none" xmlns="http://www.w3.org/2000/svg">
<g clip-path="url(#clip0_1403_2052)">
<path d="M1.0022 8.44178C0.993864 8.59911 1.20295 8.66305 1.2827 8.52698C1.7954 7.65228 2.94871 5.92949 4.68548 4.70152C6.7086 3.27109 8.48504 2.57706 9.24477 2.3585C9.26577 2.35246 9.29926 2.34029 9.31394 2.32771C9.37046 2.27932 9.38675 2.20012 9.33399 2.14663C9.32211 2.13458 9.292 2.10972 9.27518 2.10018C8.48924 1.65435 6.13451 0.359025 4.19433 1.23705C2.63821 1.94127 1.17468 5.18428 1.0022 8.44178Z" fill="#807575"/>
<path d="M26.9089 8.37434C26.9191 8.54865 26.6873 8.61959 26.5981 8.46925C26.0695 7.57824 24.9287 5.90303 23.2294 4.70152C21.2063 3.27109 19.4299 2.57706 18.6701 2.3585C18.6491 2.35246 18.6156 2.34029 18.6009 2.32771C18.5444 2.27932 18.5281 2.20012 18.5809 2.14663C18.5928 2.13458 18.6229 2.10972 18.6397 2.10018C19.4257 1.65435 21.7804 0.359025 23.7206 1.23705C25.2659 1.93641 26.72 5.13963 26.9089 8.37434Z" fill="#807575"/>
<path d="M0.439171 39.877C-0.122342 39.877 -0.157083 39.0556 0.402514 39.0097C13.8174 37.9101 40.1549 35.5181 71.6454 35.5181C103.135 35.5181 130.522 37.9099 144.596 39.0095C145.157 39.0534 145.123 39.877 144.561 39.877C144.561 39.877 99.1766 38.6 71.6545 38.6C44.7707 38.6 0.439171 39.877 0.439171 39.877Z" fill="#807575"/>
<path d="M13.8658 30.2042C6.63773 30.2042 0.52642 24.6055 0.0319281 17.321C-0.483659 9.72121 5.30675 3.12049 12.9399 2.60699C18.4772 2.23534 24.0072 5.02131 26.2248 10.0863C27.4747 12.9409 27.0118 14.6626 23.964 14.6626C21.1982 14.6626 21.3507 14.406 20.5348 12.9464C19.0835 10.3498 16.349 8.74007 13.3696 8.93831C9.01557 9.23128 5.77044 13.1879 6.46872 17.577C6.71109 19.1004 7.4313 20.5211 8.51916 21.6193C10.0806 23.1955 12.1895 23.9887 14.381 23.841C16.623 23.6902 18.7229 22.6022 19.9733 20.7396C20.6001 19.806 21.9145 19.7942 23.5582 19.7942C27.2522 19.7942 26.1778 23.0158 25.1517 24.4395C22.7264 27.804 18.9574 29.8935 14.8107 30.1723C14.4939 30.1937 14.1788 30.2042 13.8658 30.2042Z" fill="#807575"/>
<path d="M51.9027 26.2562C51.5573 25.2249 51.6019 24.0374 52.8889 23.2937C54.2138 22.528 56.2346 23.1627 57.8783 24.5212C58.4913 25.027 59.2957 25.2079 60.2533 25.2079C61.4024 25.2079 62.1303 24.8824 62.1303 24.2681C62.1303 23.9066 61.9771 23.6537 60.7896 23.256L58.4913 22.4607C57.3804 22.0632 52.2091 20.8341 52.2091 16.6773C52.2091 12.8819 55.7715 10.4239 60.4065 10.4239C63.1645 10.4239 65.4629 11.1831 67.0718 13.099C67.591 13.7114 68.4188 14.8296 67.5369 16.0026C66.2804 17.6738 62.6282 16.2798 61.7472 15.6652C61.3258 15.3761 60.8279 15.2677 60.3299 15.2677C59.4872 15.2677 59.0658 15.7015 59.0658 16.1713C59.0658 16.6411 59.4872 16.8582 60.4065 17.1473L62.6282 18.0149C66.9951 19.4607 68.9487 21.4849 69.0253 24.0874C69.0253 28.3525 64.9265 30.2321 60.2533 30.2321C56.1928 30.2321 53.2434 28.9671 51.9027 26.2562Z" fill="#807575"/>
<path d="M125.542 13.2072C125.542 13.685 125.358 14.2168 124.99 14.8029L118.41 28.6749C117.858 29.5866 116.999 30.0425 115.833 30.0425C114.422 30.0425 113.517 29.5866 113.118 28.6749L106.814 15.2913C106.323 14.3145 106.078 13.6199 106.078 13.2072C106.078 11.3838 107.044 10.4719 108.977 10.4719C110.419 10.4719 111.416 11.1345 111.968 12.4583L115.833 20.6643L119.56 12.3281C120.051 11.0906 121.017 10.4719 122.459 10.4719C124.514 10.4719 125.542 11.3838 125.542 13.2072Z" fill="#807575"/>
<path d="M74.6465 26.9015V6.27419C74.6465 4.31748 75.8815 2.73126 78.205 2.73126H79.0595C81.2059 2.73126 81.7992 4.59359 81.8338 6.34552C81.9158 10.4989 81.8338 22.8958 81.8338 22.8958C81.8338 23.4221 82.2623 23.8487 82.7909 23.8487H91.0719C93.6043 23.8487 94.1383 25.2155 94.1383 26.9016C94.1383 28.5876 92.7655 29.9544 91.0721 29.9544H77.7129C76.0194 29.9544 74.6465 28.5876 74.6465 26.9015Z" fill="#807575"/>
<path d="M96.5999 28.0659C96.5509 27.3487 96.5999 14.0586 96.5999 14.0586C96.5999 12.7741 97.9111 11.8021 99.0213 11.7329C99.7358 11.6884 100.064 11.6856 100.747 11.7329C101.831 11.8081 103.168 12.7742 103.168 14.0587C103.168 14.0587 103.199 27.3542 103.168 28.0659C103.124 29.1103 102.363 29.8 101.198 29.9585C100.265 30.0855 99.7269 30.0742 98.5704 29.9585C97.7399 29.8754 96.6713 29.109 96.5999 28.0659Z" fill="#807575"/>
<path d="M126.316 20.3299C126.316 15.0944 129.939 10.4043 136.16 10.4043C141.492 10.4043 145.661 15.2135 144.913 19.959C144.751 20.9918 143.332 22.1946 141.96 22.1946L132.448 22.1688C132.242 22.1682 132.091 22.3547 132.126 22.5567C132.388 24.0306 134.161 25.0927 137.151 25.0927C138.176 25.0927 139.407 24.8746 140.671 24.1476C141.697 23.6021 143.147 24.3842 143.635 25.2939C143.947 25.876 143.978 26.9419 142.795 28.1903C142.78 28.2065 142.762 28.2218 142.744 28.2349C140.738 29.6735 138.918 30.1101 136.672 30.1101C130.179 30.1101 126.316 25.7472 126.316 20.3299ZM139.735 17.9092C139.945 17.9092 140.101 17.7141 140.054 17.5105C139.613 15.6208 137.859 14.8552 136.194 14.8552C134.534 14.8552 132.785 15.6481 132.282 17.5007C132.227 17.7065 132.385 17.9092 132.599 17.9092H139.735Z" fill="#807575"/>
<path d="M45.724 10.4114C44.3687 10.4038 42.7695 11.3798 42.4802 12.6157C40.9912 11.224 39.5489 10.3426 37.4668 10.3426C32.7104 10.3426 28.8545 14.706 28.8545 20.0885C28.8545 25.4711 32.7104 29.8345 37.4668 29.8345C39.5586 29.8345 40.6545 28.9648 42.1466 27.5614C42.4646 28.7576 44.3974 29.6675 45.724 29.6675C47.6895 29.6675 48.5743 28.4233 48.5743 26.8887V13.1902C48.5743 11.6556 47.942 10.4239 45.724 10.4114ZM42.9989 21.2405C42.3174 21.7988 42.3756 21.8116 40.1509 23.2108C38.377 24.3264 37.8856 24.4698 37.1119 24.8146C36.2103 25.2164 35.1166 24.5733 34.9999 23.5558C34.8979 22.666 34.8643 22.1945 34.8643 19.9816C34.8643 18.243 34.8774 17.2947 34.9999 16.4074C35.1378 15.4092 36.1916 14.8978 37.1119 15.2553C37.9025 15.5624 38.3229 15.6968 40.0936 16.773C42.0414 17.9569 42.2865 18.1898 42.9989 18.7227C43.7887 19.3136 43.7618 20.6155 42.9989 21.2405Z" fill="#807575"/>
<path d="M104.355 6.19851C102.219 7.28504 101.254 8.24592 100.163 10.372C100.095 10.5052 99.9036 10.5052 99.8352 10.372C98.7439 8.24592 97.7788 7.28504 95.6433 6.19851C95.5095 6.13046 95.5095 5.94026 95.6433 5.8722C97.7788 4.78568 98.7439 3.82479 99.8352 1.69866C99.9036 1.56549 100.095 1.56549 100.163 1.69866C101.254 3.82479 102.219 4.78568 104.355 5.8722C104.489 5.94026 104.489 6.13046 104.355 6.19851Z" fill="#807575"/>
<path d="M1.0022 8.44178C0.993864 8.59911 1.20295 8.66305 1.2827 8.52698C1.7954 7.65228 2.94871 5.92949 4.68548 4.70152C6.7086 3.27109 8.48504 2.57706 9.24477 2.3585C9.26577 2.35246 9.29926 2.34029 9.31394 2.32771C9.37046 2.27932 9.38675 2.20012 9.33399 2.14663C9.32211 2.13458 9.292 2.10972 9.27518 2.10018C8.48924 1.65435 6.13451 0.359025 4.19433 1.23705C2.63821 1.94127 1.17468 5.18428 1.0022 8.44178Z" fill="url(#paint0_linear_1403_2052)"/>
<path d="M26.9089 8.37434C26.9191 8.54865 26.6873 8.61959 26.5981 8.46925C26.0695 7.57824 24.9287 5.90303 23.2294 4.70152C21.2063 3.27109 19.4299 2.57706 18.6701 2.3585C18.6491 2.35246 18.6156 2.34029 18.6009 2.32771C18.5444 2.27932 18.5281 2.20012 18.5809 2.14663C18.5928 2.13458 18.6229 2.10972 18.6397 2.10018C19.4257 1.65435 21.7804 0.359025 23.7206 1.23705C25.2659 1.93641 26.72 5.13963 26.9089 8.37434Z" fill="url(#paint1_linear_1403_2052)"/>
<path d="M0.439171 39.877C-0.122342 39.877 -0.157083 39.0556 0.402514 39.0097C13.8174 37.9101 40.1549 35.5181 71.6454 35.5181C103.135 35.5181 130.522 37.9099 144.596 39.0095C145.157 39.0534 145.123 39.877 144.561 39.877C144.561 39.877 99.1766 38.6 71.6545 38.6C44.7707 38.6 0.439171 39.877 0.439171 39.877Z" fill="url(#paint2_linear_1403_2052)"/>
<path d="M0.439171 39.877C-0.122342 39.877 -0.157083 39.0556 0.402514 39.0097C13.8174 37.9101 40.1549 35.5181 71.6454 35.5181C103.135 35.5181 130.522 37.9099 144.596 39.0095C145.157 39.0534 145.123 39.877 144.561 39.877C144.561 39.877 99.1766 38.6 71.6545 38.6C44.7707 38.6 0.439171 39.877 0.439171 39.877Z" fill="url(#paint3_linear_1403_2052)"/>
<path d="M13.8658 30.2042C6.63773 30.2042 0.52642 24.6055 0.0319281 17.321C-0.483659 9.72121 5.30675 3.12049 12.9399 2.60699C18.4772 2.23534 24.0072 5.02131 26.2248 10.0863C27.4747 12.9409 27.0118 14.6626 23.964 14.6626C21.1982 14.6626 21.3507 14.406 20.5348 12.9464C19.0835 10.3498 16.349 8.74007 13.3696 8.93831C9.01557 9.23128 5.77044 13.1879 6.46872 17.577C6.71109 19.1004 7.4313 20.5211 8.51916 21.6193C10.0806 23.1955 12.1895 23.9887 14.381 23.841C16.623 23.6902 18.7229 22.6022 19.9733 20.7396C20.6001 19.806 21.9145 19.7942 23.5582 19.7942C27.2522 19.7942 26.1778 23.0158 25.1517 24.4395C22.7264 27.804 18.9574 29.8935 14.8107 30.1723C14.4939 30.1937 14.1788 30.2042 13.8658 30.2042Z" fill="url(#paint4_linear_1403_2052)"/>
<path d="M51.9027 26.2562C51.5573 25.2249 51.6019 24.0374 52.8889 23.2937C54.2138 22.528 56.2346 23.1627 57.8783 24.5212C58.4913 25.027 59.2957 25.2079 60.2533 25.2079C61.4024 25.2079 62.1303 24.8824 62.1303 24.2681C62.1303 23.9066 61.9771 23.6537 60.7896 23.256L58.4913 22.4607C57.3804 22.0632 52.2091 20.8341 52.2091 16.6773C52.2091 12.8819 55.7715 10.4239 60.4065 10.4239C63.1645 10.4239 65.4629 11.1831 67.0718 13.099C67.591 13.7114 68.4188 14.8296 67.5369 16.0026C66.2804 17.6738 62.6282 16.2798 61.7472 15.6652C61.3258 15.3761 60.8279 15.2677 60.3299 15.2677C59.4872 15.2677 59.0658 15.7015 59.0658 16.1713C59.0658 16.6411 59.4872 16.8582 60.4065 17.1473L62.6282 18.0149C66.9951 19.4607 68.9487 21.4849 69.0253 24.0874C69.0253 28.3525 64.9265 30.2321 60.2533 30.2321C56.1928 30.2321 53.2434 28.9671 51.9027 26.2562Z" fill="url(#paint5_linear_1403_2052)"/>
<path d="M125.542 13.2072C125.542 13.685 125.358 14.2168 124.99 14.8029L118.41 28.6749C117.858 29.5866 116.999 30.0425 115.833 30.0425C114.422 30.0425 113.517 29.5866 113.118 28.6749L106.814 15.2913C106.323 14.3145 106.078 13.6199 106.078 13.2072C106.078 11.3838 107.044 10.4719 108.977 10.4719C110.419 10.4719 111.416 11.1345 111.968 12.4583L115.833 20.6643L119.56 12.3281C120.051 11.0906 121.017 10.4719 122.459 10.4719C124.514 10.4719 125.542 11.3838 125.542 13.2072Z" fill="url(#paint6_linear_1403_2052)"/>
<path d="M74.6465 26.9015V6.27419C74.6465 4.31748 75.8815 2.73126 78.205 2.73126H79.0595C81.2059 2.73126 81.7992 4.59359 81.8338 6.34552C81.9158 10.4989 81.8338 22.8958 81.8338 22.8958C81.8338 23.4221 82.2623 23.8487 82.7909 23.8487H91.0719C93.6043 23.8487 94.1383 25.2155 94.1383 26.9016C94.1383 28.5876 92.7655 29.9544 91.0721 29.9544H77.7129C76.0194 29.9544 74.6465 28.5876 74.6465 26.9015Z" fill="url(#paint7_linear_1403_2052)"/>
<path d="M96.5999 28.0659C96.5509 27.3487 96.5999 14.0586 96.5999 14.0586C96.5999 12.7741 97.9111 11.8021 99.0213 11.7329C99.7358 11.6884 100.064 11.6856 100.747 11.7329C101.831 11.8081 103.168 12.7742 103.168 14.0587C103.168 14.0587 103.199 27.3542 103.168 28.0659C103.124 29.1103 102.363 29.8 101.198 29.9585C100.265 30.0855 99.7269 30.0742 98.5704 29.9585C97.7399 29.8754 96.6713 29.109 96.5999 28.0659Z" fill="url(#paint8_linear_1403_2052)"/>
<path d="M126.316 20.3299C126.316 15.0944 129.939 10.4043 136.16 10.4043C141.492 10.4043 145.661 15.2135 144.913 19.959C144.751 20.9918 143.332 22.1946 141.96 22.1946L132.448 22.1688C132.242 22.1682 132.091 22.3547 132.126 22.5567C132.388 24.0306 134.161 25.0927 137.151 25.0927C138.176 25.0927 139.407 24.8746 140.671 24.1476C141.697 23.6021 143.147 24.3842 143.635 25.2939C143.947 25.876 143.978 26.9419 142.795 28.1903C142.78 28.2065 142.762 28.2218 142.744 28.2349C140.738 29.6735 138.918 30.1101 136.672 30.1101C130.179 30.1101 126.316 25.7472 126.316 20.3299ZM139.735 17.9092C139.945 17.9092 140.101 17.7141 140.054 17.5105C139.613 15.6208 137.859 14.8552 136.194 14.8552C134.534 14.8552 132.785 15.6481 132.282 17.5007C132.227 17.7065 132.385 17.9092 132.599 17.9092H139.735Z" fill="url(#paint9_linear_1403_2052)"/>
<path d="M45.724 10.4114C44.3687 10.4038 42.7695 11.3798 42.4802 12.6157C40.9912 11.224 39.5489 10.3426 37.4668 10.3426C32.7104 10.3426 28.8545 14.706 28.8545 20.0885C28.8545 25.4711 32.7104 29.8345 37.4668 29.8345C39.5586 29.8345 40.6545 28.9648 42.1466 27.5614C42.4646 28.7576 44.3974 29.6675 45.724 29.6675C47.6895 29.6675 48.5743 28.4233 48.5743 26.8887V13.1902C48.5743 11.6556 47.942 10.4239 45.724 10.4114ZM42.9989 21.2405C42.3174 21.7988 42.3756 21.8116 40.1509 23.2108C38.377 24.3264 37.8856 24.4698 37.1119 24.8146C36.2103 25.2164 35.1166 24.5733 34.9999 23.5558C34.8979 22.666 34.8643 22.1945 34.8643 19.9816C34.8643 18.243 34.8774 17.2947 34.9999 16.4074C35.1378 15.4092 36.1916 14.8978 37.1119 15.2553C37.9025 15.5624 38.3229 15.6968 40.0936 16.773C42.0414 17.9569 42.2865 18.1898 42.9989 18.7227C43.7887 19.3136 43.7618 20.6155 42.9989 21.2405Z" fill="url(#paint10_linear_1403_2052)"/>
<path d="M104.355 6.19851C102.219 7.28504 101.254 8.24592 100.163 10.372C100.095 10.5052 99.9036 10.5052 99.8352 10.372C98.7439 8.24592 97.7788 7.28504 95.6433 6.19851C95.5095 6.13046 95.5095 5.94026 95.6433 5.8722C97.7788 4.78568 98.7439 3.82479 99.8352 1.69866C99.9036 1.56549 100.095 1.56549 100.163 1.69866C101.254 3.82479 102.219 4.78568 104.355 5.8722C104.489 5.94026 104.489 6.13046 104.355 6.19851Z" fill="url(#paint11_linear_1403_2052)"/>
</g>
<defs>
<linearGradient id="paint0_linear_1403_2052" x1="-1.52472" y1="3.94705" x2="144.024" y2="27.5997" gradientUnits="userSpaceOnUse">
<stop offset="1.9e-06" stop-color="#FF6E9B"/>
<stop offset="0.27964" stop-color="#E969DB"/>
<stop offset="0.657047" stop-color="#8D82EB"/>
<stop offset="1" stop-color="#4D85FF"/>
</linearGradient>
<linearGradient id="paint1_linear_1403_2052" x1="-0.983448" y1="0.615221" x2="144.565" y2="24.2679" gradientUnits="userSpaceOnUse">
<stop offset="1.9e-06" stop-color="#FF6E9B"/>
<stop offset="0.27964" stop-color="#E969DB"/>
<stop offset="0.657047" stop-color="#8D82EB"/>
<stop offset="1" stop-color="#4D85FF"/>
</linearGradient>
<linearGradient id="paint2_linear_1403_2052" x1="-5.25776" y1="26.9176" x2="140.291" y2="50.5703" gradientUnits="userSpaceOnUse">
<stop offset="1.9e-06" stop-color="#FF6E9B"/>
<stop offset="0.27964" stop-color="#E969DB"/>
<stop offset="0.657047" stop-color="#8D82EB"/>
<stop offset="1" stop-color="#4D85FF"/>
</linearGradient>
<linearGradient id="paint3_linear_1403_2052" x1="-5.25776" y1="26.9176" x2="140.291" y2="50.5703" gradientUnits="userSpaceOnUse">
<stop offset="1.9e-06" stop-color="#FF6E9B"/>
<stop offset="0.27964" stop-color="#E969DB"/>
<stop offset="0.657047" stop-color="#8D82EB"/>
<stop offset="1" stop-color="#4D85FF"/>
</linearGradient>
<linearGradient id="paint4_linear_1403_2052" x1="-3.101" y1="13.6458" x2="142.447" y2="37.2985" gradientUnits="userSpaceOnUse">
<stop offset="1.9e-06" stop-color="#FF6E9B"/>
<stop offset="0.27964" stop-color="#E969DB"/>
<stop offset="0.657047" stop-color="#8D82EB"/>
<stop offset="1" stop-color="#4D85FF"/>
</linearGradient>
<linearGradient id="paint5_linear_1403_2052" x1="-2.54499" y1="10.2245" x2="143.003" y2="33.8772" gradientUnits="userSpaceOnUse">
<stop offset="1.9e-06" stop-color="#FF6E9B"/>
<stop offset="0.27964" stop-color="#E969DB"/>
<stop offset="0.657047" stop-color="#8D82EB"/>
<stop offset="1" stop-color="#4D85FF"/>
</linearGradient>
<linearGradient id="paint6_linear_1403_2052" x1="-1.02945" y1="0.896871" x2="144.519" y2="24.5495" gradientUnits="userSpaceOnUse">
<stop offset="1.9e-06" stop-color="#FF6E9B"/>
<stop offset="0.27964" stop-color="#E969DB"/>
<stop offset="0.657047" stop-color="#8D82EB"/>
<stop offset="1" stop-color="#4D85FF"/>
</linearGradient>
<linearGradient id="paint7_linear_1403_2052" x1="-1.44923" y1="3.48097" x2="144.099" y2="27.1336" gradientUnits="userSpaceOnUse">
<stop offset="1.9e-06" stop-color="#FF6E9B"/>
<stop offset="0.27964" stop-color="#E969DB"/>
<stop offset="0.657047" stop-color="#8D82EB"/>
<stop offset="1" stop-color="#4D85FF"/>
</linearGradient>
<linearGradient id="paint8_linear_1403_2052" x1="-1.61946" y1="4.52866" x2="143.929" y2="28.1813" gradientUnits="userSpaceOnUse">
<stop offset="1.9e-06" stop-color="#FF6E9B"/>
<stop offset="0.27964" stop-color="#E969DB"/>
<stop offset="0.657047" stop-color="#8D82EB"/>
<stop offset="1" stop-color="#4D85FF"/>
</linearGradient>
<linearGradient id="paint9_linear_1403_2052" x1="-0.59354" y1="-1.78162" x2="144.955" y2="21.8711" gradientUnits="userSpaceOnUse">
<stop offset="1.9e-06" stop-color="#FF6E9B"/>
<stop offset="0.27964" stop-color="#E969DB"/>
<stop offset="0.657047" stop-color="#8D82EB"/>
<stop offset="1" stop-color="#4D85FF"/>
</linearGradient>
<linearGradient id="paint10_linear_1403_2052" x1="-2.98989" y1="12.9596" x2="142.559" y2="36.6123" gradientUnits="userSpaceOnUse">
<stop offset="1.9e-06" stop-color="#FF6E9B"/>
<stop offset="0.27964" stop-color="#E969DB"/>
<stop offset="0.657047" stop-color="#8D82EB"/>
<stop offset="1" stop-color="#4D85FF"/>
</linearGradient>
<linearGradient id="paint11_linear_1403_2052" x1="0.73441" y1="-9.95448" x2="146.283" y2="13.6982" gradientUnits="userSpaceOnUse">
<stop offset="1.9e-06" stop-color="#FF6E9B"/>
<stop offset="0.27964" stop-color="#E969DB"/>
<stop offset="0.657047" stop-color="#8D82EB"/>
<stop offset="1" stop-color="#4D85FF"/>
</linearGradient>
<clipPath id="clip0_1403_2052">
<rect width="145" height="41" fill="white"/>
</clipPath>
</defs>
</svg>
