<svg width="308" height="121" viewBox="0 0 308 121" fill="none" xmlns="http://www.w3.org/2000/svg">
<path fill-rule="evenodd" clip-rule="evenodd" d="M83.2343 18.0094C86.7321 17.4511 91.5308 17.1435 94.2937 19.7166C98.9384 24.0404 93.5188 31.9266 90.0723 35.4491C91.1566 36.2656 91.7283 37.4696 91.5612 38.7837C91.4245 39.8641 90.5319 41.0072 89.3166 41.3889L83.2648 43.2897L74.8982 46.1533L66.5315 49.1782L57.7775 52.7387C55.026 53.8571 52.4016 54.989 49.764 56.3411C48.2202 57.1329 46.4485 57.0588 45.0737 55.7562C39.489 68.4447 33.2225 80.1211 26.0617 91.8564L26.0598 91.8545C21.4796 99.3591 13.1681 111.657 7.03837 117.644C5.5705 119.078 2.85685 121.267 0.783254 120.052C-0.984553 119.017 0.678821 115.98 1.49535 114.936L7.23958 107.585C16.55 95.6695 26.2573 79.1945 33.0554 65.6077C36.5209 58.6824 39.9543 51.8634 42.571 44.6076L44.2818 39.8583C42.1835 40.0539 40.1213 38.7683 40.0321 36.6225C39.9752 35.2155 40.9493 33.9868 42.0962 33.2519C44.5724 31.6664 47.0619 30.3866 49.7869 29.1542C59.3897 24.8152 72.8738 19.6672 83.2343 18.0094ZM88.8629 24.3309C88.1375 23.6587 82.8906 24.4031 81.5329 24.7165C70.9332 27.1528 60.8118 30.9525 51.0495 35.7624C51.7749 36.9759 51.8737 38.1019 51.5528 39.3172C50.4609 43.4587 49.164 45.7698 47.7759 49.8923C50.5085 48.6087 52.9846 47.5187 55.6754 46.4591L58.856 45.2057V45.2038C66.1783 42.3194 73.455 39.6476 80.9349 37.2113C82.6742 36.6435 80.3064 36.6282 83.1186 33.2748C84.0417 32.1751 89.8937 25.2862 88.8629 24.3309Z" fill="url(#paint0_linear_1403_2134)"/>
<path fill-rule="evenodd" clip-rule="evenodd" d="M83.2343 18.0094C86.7321 17.4511 91.5308 17.1435 94.2937 19.7166C98.9384 24.0404 93.5188 31.9266 90.0723 35.4491C91.1566 36.2656 91.7283 37.4696 91.5612 38.7837C91.4245 39.8641 90.5319 41.0072 89.3166 41.3889L83.2648 43.2897L74.8982 46.1533L66.5315 49.1782L57.7775 52.7387C55.026 53.8571 52.4016 54.989 49.764 56.3411C48.2202 57.1329 46.4485 57.0588 45.0737 55.7562C39.489 68.4447 33.2225 80.1211 26.0617 91.8564L26.0598 91.8545C21.4796 99.3591 13.1681 111.657 7.03837 117.644C5.5705 119.078 2.85685 121.267 0.783254 120.052C-0.984553 119.017 0.678821 115.98 1.49535 114.936L7.23958 107.585C16.55 95.6695 26.2573 79.1945 33.0554 65.6077C36.5209 58.6824 39.9543 51.8634 42.571 44.6076L44.2818 39.8583C42.1835 40.0539 40.1213 38.7683 40.0321 36.6225C39.9752 35.2155 40.9493 33.9868 42.0962 33.2519C44.5724 31.6664 47.0619 30.3866 49.7869 29.1542C59.3897 24.8152 72.8738 19.6672 83.2343 18.0094ZM88.8629 24.3309C88.1375 23.6587 82.8906 24.4031 81.5329 24.7165C70.9332 27.1528 60.8118 30.9525 51.0495 35.7624C51.7749 36.9759 51.8737 38.1019 51.5528 39.3172C50.4609 43.4587 49.164 45.7698 47.7759 49.8923C50.5085 48.6087 52.9846 47.5187 55.6754 46.4591L58.856 45.2057V45.2038C66.1783 42.3194 73.455 39.6476 80.9349 37.2113C82.6742 36.6435 80.3064 36.6282 83.1186 33.2748C84.0417 32.1751 89.8937 25.2862 88.8629 24.3309Z" fill="white" fill-opacity="0.4"/>
<path fill-rule="evenodd" clip-rule="evenodd" d="M72.5283 52.0058C74.3892 52.002 75.764 53.4129 75.9539 55.3688C76.0659 56.5195 75.802 57.7007 75.7546 58.897L75.5799 63.291L80.7772 61.7131C83.4566 60.9004 86.1511 60.4256 88.9406 60.1237C93.6594 59.6148 99.155 60.7408 100.367 66.0901C100.904 68.4675 100.642 70.9684 100.093 73.3839C98.1751 81.8207 95.7369 87.4377 92.0625 95.1454C91.2725 96.8031 90.4692 98.4305 89.1533 99.6857C87.5449 101.22 84.9832 100.812 83.5837 99.1066C76.6394 101.264 69.904 103.569 63.2768 106.484C61.3684 107.323 59.6897 108.164 57.7529 108.895C57.0711 109.154 56.1918 108.92 55.5196 108.603C54.3631 109.748 52.7946 110.337 51.2394 109.636C50.0868 109.116 49.1432 108.229 48.4786 107.097C46.0119 102.895 44.6483 98.328 43.6039 93.5541C42.5633 88.7878 42.3128 84.0709 42.3944 79.1756H42.3905C42.438 76.2607 42.3735 71.7849 45.7973 71.481C47.4493 71.333 48.9114 72.3869 49.4659 74.054C49.7868 75.0149 49.3654 76.0556 49.3255 77.0981L49.1411 82.0145C49.0595 84.1659 49.3443 86.2339 49.5855 88.3758C50.1893 93.7403 51.7237 98.8256 54.2512 103.694C55.6089 102.716 57.0388 102.04 58.5694 101.368L65.9998 98.2977L66.6681 89.3272C64.2964 90.3886 62.1906 91.4958 59.9859 92.7282C58.7858 93.3985 57.4547 93.1933 56.4027 92.409C55.4532 91.7007 54.7278 90.4114 55.0923 89.0898C55.3601 88.1176 56.152 87.134 57.0919 86.6193C60.4492 84.7812 63.8845 83.298 67.3899 81.758L67.9824 73.1066C63.3053 75.0663 59.0062 77.3867 54.9824 80.2294C53.2809 80.6795 51.7427 80.2332 50.8958 78.9078C50.066 77.6089 50.2596 75.8713 51.5148 74.7415C55.4228 71.2209 63.5103 67.9319 68.5387 65.7937L68.9413 58.9956L69.0798 55.3271C69.2013 53.3655 70.6673 52.0096 72.5283 52.0058ZM93.7487 68.7295C93.9803 66.2439 90.2281 66.3313 88.5799 66.618C87.207 66.8573 85.8776 67.0395 84.5237 67.3585C81.2823 68.1219 78.2667 69.1701 75.0538 70.3L74.4007 79.2495L80.8512 77.3184C82.3305 76.9671 83.7661 77.0448 85.0023 77.9867C85.8018 78.7728 86.2764 79.8913 85.9878 81.0079C85.7504 81.9289 85.1485 83.0454 83.9921 83.3265C80.5114 84.1715 77.2206 85.1913 73.7741 86.4389L72.9555 95.8252C76.816 94.4143 80.5113 92.9579 84.573 92.2705L85.7562 92.0691C88.9976 85.3602 93.0518 76.1922 93.7487 68.7295Z" fill="url(#paint1_linear_1403_2134)"/>
<path fill-rule="evenodd" clip-rule="evenodd" d="M72.5283 52.0058C74.3892 52.002 75.764 53.4129 75.9539 55.3688C76.0659 56.5195 75.802 57.7007 75.7546 58.897L75.5799 63.291L80.7772 61.7131C83.4566 60.9004 86.1511 60.4256 88.9406 60.1237C93.6594 59.6148 99.155 60.7408 100.367 66.0901C100.904 68.4675 100.642 70.9684 100.093 73.3839C98.1751 81.8207 95.7369 87.4377 92.0625 95.1454C91.2725 96.8031 90.4692 98.4305 89.1533 99.6857C87.5449 101.22 84.9832 100.812 83.5837 99.1066C76.6394 101.264 69.904 103.569 63.2768 106.484C61.3684 107.323 59.6897 108.164 57.7529 108.895C57.0711 109.154 56.1918 108.92 55.5196 108.603C54.3631 109.748 52.7946 110.337 51.2394 109.636C50.0868 109.116 49.1432 108.229 48.4786 107.097C46.0119 102.895 44.6483 98.328 43.6039 93.5541C42.5633 88.7878 42.3128 84.0709 42.3944 79.1756H42.3905C42.438 76.2607 42.3735 71.7849 45.7973 71.481C47.4493 71.333 48.9114 72.3869 49.4659 74.054C49.7868 75.0149 49.3654 76.0556 49.3255 77.0981L49.1411 82.0145C49.0595 84.1659 49.3443 86.2339 49.5855 88.3758C50.1893 93.7403 51.7237 98.8256 54.2512 103.694C55.6089 102.716 57.0388 102.04 58.5694 101.368L65.9998 98.2977L66.6681 89.3272C64.2964 90.3886 62.1906 91.4958 59.9859 92.7282C58.7858 93.3985 57.4547 93.1933 56.4027 92.409C55.4532 91.7007 54.7278 90.4114 55.0923 89.0898C55.3601 88.1176 56.152 87.134 57.0919 86.6193C60.4492 84.7812 63.8845 83.298 67.3899 81.758L67.9824 73.1066C63.3053 75.0663 59.0062 77.3867 54.9824 80.2294C53.2809 80.6795 51.7427 80.2332 50.8958 78.9078C50.066 77.6089 50.2596 75.8713 51.5148 74.7415C55.4228 71.2209 63.5103 67.9319 68.5387 65.7937L68.9413 58.9956L69.0798 55.3271C69.2013 53.3655 70.6673 52.0096 72.5283 52.0058ZM93.7487 68.7295C93.9803 66.2439 90.2281 66.3313 88.5799 66.618C87.207 66.8573 85.8776 67.0395 84.5237 67.3585C81.2823 68.1219 78.2667 69.1701 75.0538 70.3L74.4007 79.2495L80.8512 77.3184C82.3305 76.9671 83.7661 77.0448 85.0023 77.9867C85.8018 78.7728 86.2764 79.8913 85.9878 81.0079C85.7504 81.9289 85.1485 83.0454 83.9921 83.3265C80.5114 84.1715 77.2206 85.1913 73.7741 86.4389L72.9555 95.8252C76.816 94.4143 80.5113 92.9579 84.573 92.2705L85.7562 92.0691C88.9976 85.3602 93.0518 76.1922 93.7487 68.7295Z" fill="white" fill-opacity="0.4"/>
<path d="M147.104 99.8511C146.071 99.1314 145.973 97.6332 146.478 96.5489C147.38 94.612 148.432 92.8897 149.504 91.0174C151.677 87.2195 153.494 83.416 155.027 79.2972C159.554 67.1328 161.048 57.9002 162.261 44.6951C156.732 46.7631 151.082 48.9696 146.115 52.1104C144.451 53.1985 142.554 52.9213 141.43 51.423C140.308 49.9267 140.595 47.9252 142.197 46.6548C143.367 45.7282 144.75 45.0692 146.162 44.3552C151.453 41.6778 156.834 39.5776 162.503 37.5666C162.649 34.2682 162.67 31.0628 162.001 27.903C161.741 26.6725 161.697 25.5559 162.647 24.5685C163.27 23.676 164.345 23.2431 165.467 23.3589C166.437 23.4595 167.299 24.0539 168.013 24.9559C168.583 26.0383 168.923 27.2365 169.029 28.5183L169.616 35.5006C172.286 34.5777 174.956 33.7593 177.751 33.089C178.357 32.9427 179.403 32.9959 180.001 33.1136C181.399 33.3871 182.272 34.7505 182.316 36.0171C182.354 37.1792 181.566 38.7382 180.214 39.1237L169.348 42.2228C168.165 56.8444 166.234 69.7913 160.699 83.4445C158.447 88.9988 155.3 95.2045 150.864 99.2321C149.85 100.153 148.413 100.761 147.108 99.8511H147.104Z" fill="url(#paint2_linear_1403_2134)"/>
<path d="M147.104 99.8511C146.071 99.1314 145.973 97.6332 146.478 96.5489C147.38 94.612 148.432 92.8897 149.504 91.0174C151.677 87.2195 153.494 83.416 155.027 79.2972C159.554 67.1328 161.048 57.9002 162.261 44.6951C156.732 46.7631 151.082 48.9696 146.115 52.1104C144.451 53.1985 142.554 52.9213 141.43 51.423C140.308 49.9267 140.595 47.9252 142.197 46.6548C143.367 45.7282 144.75 45.0692 146.162 44.3552C151.453 41.6778 156.834 39.5776 162.503 37.5666C162.649 34.2682 162.67 31.0628 162.001 27.903C161.741 26.6725 161.697 25.5559 162.647 24.5685C163.27 23.676 164.345 23.2431 165.467 23.3589C166.437 23.4595 167.299 24.0539 168.013 24.9559C168.583 26.0383 168.923 27.2365 169.029 28.5183L169.616 35.5006C172.286 34.5777 174.956 33.7593 177.751 33.089C178.357 32.9427 179.403 32.9959 180.001 33.1136C181.399 33.3871 182.272 34.7505 182.316 36.0171C182.354 37.1792 181.566 38.7382 180.214 39.1237L169.348 42.2228C168.165 56.8444 166.234 69.7913 160.699 83.4445C158.447 88.9988 155.3 95.2045 150.864 99.2321C149.85 100.153 148.413 100.761 147.108 99.8511H147.104Z" fill="white" fill-opacity="0.4"/>
<path d="M132.097 77.3546C131.018 81.255 129.011 84.8668 126.131 87.5537C124.321 89.24 121.814 89.314 119.923 87.8101C118.372 86.5777 117.491 84.7756 116.984 82.795C115.725 77.8768 115.538 72.8371 115.723 67.7347C115.884 63.24 116.237 58.9351 117.132 54.5258L118.638 47.1068C118.873 45.9446 119.26 44.8262 120.128 44.0153C121.249 42.9671 122.901 42.7449 124.15 43.5824C125.333 44.3761 125.88 45.7927 125.519 47.3403C124.07 53.565 123.026 59.7441 122.559 66.1377C122.28 69.9489 122.221 77.1287 123.582 80.955L126.29 78.0496C127.23 77.0413 128.273 76.1716 129.416 75.3475C129.985 74.9354 130.844 74.9259 131.381 75.2981C131.913 75.6665 132.348 76.4508 132.097 77.3546Z" fill="url(#paint3_linear_1403_2134)"/>
<path d="M132.097 77.3546C131.018 81.255 129.011 84.8668 126.131 87.5537C124.321 89.24 121.814 89.314 119.923 87.8101C118.372 86.5777 117.491 84.7756 116.984 82.795C115.725 77.8768 115.538 72.8371 115.723 67.7347C115.884 63.24 116.237 58.9351 117.132 54.5258L118.638 47.1068C118.873 45.9446 119.26 44.8262 120.128 44.0153C121.249 42.9671 122.901 42.7449 124.15 43.5824C125.333 44.3761 125.88 45.7927 125.519 47.3403C124.07 53.565 123.026 59.7441 122.559 66.1377C122.28 69.9489 122.221 77.1287 123.582 80.955L126.29 78.0496C127.23 77.0413 128.273 76.1716 129.416 75.3475C129.985 74.9354 130.844 74.9259 131.381 75.2981C131.913 75.6665 132.348 76.4508 132.097 77.3546Z" fill="white" fill-opacity="0.4"/>
<path d="M237.131 78.7801C235.585 79.1086 234.121 78.6586 232.604 78.5636L229.383 78.3643C226.603 78.1915 221.389 78.2218 218.542 78.6928C217.682 85.1206 215.268 93.2271 209.422 96.6869C203.085 100.437 194.014 98.189 191.014 91.0965C189.817 88.2671 190.387 85.2877 192.18 82.9065C195.761 78.1535 202.684 75.3013 208.326 73.9531L212.428 72.9732L212.608 68.4386L212.756 49.9279L212.944 41.7474L213.149 38.542L213.326 33.3675L213.69 29.6836C213.837 28.1986 215.325 26.7725 216.827 26.6814C219.135 26.539 220.574 28.7322 220.301 30.8248L219.991 35.4886L219.799 42.0531L227.104 38.7775L238.012 33.8118C240.051 32.8833 242.512 33.8403 242.962 36.0317C243.255 37.4597 242.326 38.825 241.098 39.5333C239.142 40.6593 237.138 41.4911 235.055 42.4329L223.819 47.5106C222.433 48.1373 221.123 48.3708 219.56 47.9778L219.404 52.5826L219.249 67.8689C219.233 69.2665 219.116 70.5863 219.15 71.9744L223.117 71.7769C224.577 71.7047 226.001 71.7275 227.484 71.7655C230.221 71.8377 238.059 71.9326 239.404 74.6936C240.243 76.416 239.037 78.37 237.135 78.7744L237.131 78.7801ZM204.595 91.5921C206.125 90.8136 207.435 89.8337 208.305 88.3924C209.841 85.846 210.808 83.0147 211.366 79.9499C207.006 80.7379 200.233 83.2787 197.563 86.7461C197.026 87.8171 197.282 88.9982 198.068 89.9268C199.619 91.7611 202.168 92.3137 204.595 91.5921Z" fill="url(#paint4_linear_1403_2134)"/>
<path d="M237.131 78.7801C235.585 79.1086 234.121 78.6586 232.604 78.5636L229.383 78.3643C226.603 78.1915 221.389 78.2218 218.542 78.6928C217.682 85.1206 215.268 93.2271 209.422 96.6869C203.085 100.437 194.014 98.189 191.014 91.0965C189.817 88.2671 190.387 85.2877 192.18 82.9065C195.761 78.1535 202.684 75.3013 208.326 73.9531L212.428 72.9732L212.608 68.4386L212.756 49.9279L212.944 41.7474L213.149 38.542L213.326 33.3675L213.69 29.6836C213.837 28.1986 215.325 26.7725 216.827 26.6814C219.135 26.539 220.574 28.7322 220.301 30.8248L219.991 35.4886L219.799 42.0531L227.104 38.7775L238.012 33.8118C240.051 32.8833 242.512 33.8403 242.962 36.0317C243.255 37.4597 242.326 38.825 241.098 39.5333C239.142 40.6593 237.138 41.4911 235.055 42.4329L223.819 47.5106C222.433 48.1373 221.123 48.3708 219.56 47.9778L219.404 52.5826L219.249 67.8689C219.233 69.2665 219.116 70.5863 219.15 71.9744L223.117 71.7769C224.577 71.7047 226.001 71.7275 227.484 71.7655C230.221 71.8377 238.059 71.9326 239.404 74.6936C240.243 76.416 239.037 78.37 237.135 78.7744L237.131 78.7801ZM204.595 91.5921C206.125 90.8136 207.435 89.8337 208.305 88.3924C209.841 85.846 210.808 83.0147 211.366 79.9499C207.006 80.7379 200.233 83.2787 197.563 86.7461C197.026 87.8171 197.282 88.9982 198.068 89.9268C199.619 91.7611 202.168 92.3137 204.595 91.5921Z" fill="white" fill-opacity="0.4"/>
<path d="M278.242 91.5791C285.019 82.4472 292.394 70.6416 296.862 60.3703C299.671 53.9102 302.707 43.9978 299.889 37.3364C298.666 34.4425 296.084 32.7145 292.985 32.4353C291.401 32.2929 289.823 32.2663 288.232 32.5702C280.268 34.0931 272.777 39.0265 267.431 44.9226C266.032 46.4664 265.124 48.0558 264.414 49.9244C263.893 51.2897 262.646 52.129 261.33 52.0891C260.014 52.0493 258.692 51.3372 258.2 49.9681C257.635 48.3938 258.037 46.681 258.945 45.2094C263.364 38.0485 270.957 32.5379 278.439 28.8844C284.229 26.0569 291.821 24.6839 297.941 26.9437C304.942 29.53 307.796 36.2617 307.808 43.3294C307.813 46.5291 307.536 49.4838 306.771 52.6C303.585 65.5525 295.21 79.2304 287.482 90.0903C282.953 96.4536 275.124 106.74 268.962 111.221C267.704 112.135 264.858 113.703 263.622 112.67C262.226 111.504 263.413 109.159 264.402 108.037L267.441 104.59C271.189 100.337 274.801 96.2181 278.243 91.5772L278.242 91.5791Z" fill="url(#paint5_linear_1403_2134)"/>
<path d="M278.242 91.5791C285.019 82.4472 292.394 70.6416 296.862 60.3703C299.671 53.9102 302.707 43.9978 299.889 37.3364C298.666 34.4425 296.084 32.7145 292.985 32.4353C291.401 32.2929 289.823 32.2663 288.232 32.5702C280.268 34.0931 272.777 39.0265 267.431 44.9226C266.032 46.4664 265.124 48.0558 264.414 49.9244C263.893 51.2897 262.646 52.129 261.33 52.0891C260.014 52.0493 258.692 51.3372 258.2 49.9681C257.635 48.3938 258.037 46.681 258.945 45.2094C263.364 38.0485 270.957 32.5379 278.439 28.8844C284.229 26.0569 291.821 24.6839 297.941 26.9437C304.942 29.53 307.796 36.2617 307.808 43.3294C307.813 46.5291 307.536 49.4838 306.771 52.6C303.585 65.5525 295.21 79.2304 287.482 90.0903C282.953 96.4536 275.124 106.74 268.962 111.221C267.704 112.135 264.858 113.703 263.622 112.67C262.226 111.504 263.413 109.159 264.402 108.037L267.441 104.59C271.189 100.337 274.801 96.2181 278.243 91.5772L278.242 91.5791Z" fill="white" fill-opacity="0.4"/>
<path d="M289.909 16.4673C289.322 18.1612 287.582 18.6834 286.086 17.8972C285.203 17.4339 284.426 16.6496 283.862 15.7533L278.595 7.38481C277.833 6.1752 276.914 5.06433 276.667 3.61926C276.409 2.10392 277.433 0.755686 278.669 0.260068C281.939 -1.05208 283.836 2.90526 285.395 5.33398C287.026 7.87663 288.482 10.3965 289.66 13.186C290.089 14.2038 290.294 15.3584 289.909 16.4673Z" fill="url(#paint6_linear_1403_2134)"/>
<path d="M289.909 16.4673C289.322 18.1612 287.582 18.6834 286.086 17.8972C285.203 17.4339 284.426 16.6496 283.862 15.7533L278.595 7.38481C277.833 6.1752 276.914 5.06433 276.667 3.61926C276.409 2.10392 277.433 0.755686 278.669 0.260068C281.939 -1.05208 283.836 2.90526 285.395 5.33398C287.026 7.87663 288.482 10.3965 289.66 13.186C290.089 14.2038 290.294 15.3584 289.909 16.4673Z" fill="white" fill-opacity="0.4"/>
<defs>
<linearGradient id="paint0_linear_1403_2134" x1="50.3305" y1="120.406" x2="50.3305" y2="17.6258" gradientUnits="userSpaceOnUse">
<stop stop-color="#7FCDFE"/>
<stop offset="1" stop-color="#B99CE0"/>
</linearGradient>
<linearGradient id="paint1_linear_1403_2134" x1="50.3305" y1="120.406" x2="50.3305" y2="17.6258" gradientUnits="userSpaceOnUse">
<stop stop-color="#7FCDFE"/>
<stop offset="1" stop-color="#B99CE0"/>
</linearGradient>
<linearGradient id="paint2_linear_1403_2134" x1="148.99" y1="100.3" x2="148.99" y2="23.3405" gradientUnits="userSpaceOnUse">
<stop stop-color="#7FCDFE"/>
<stop offset="1" stop-color="#B99CE0"/>
</linearGradient>
<linearGradient id="paint3_linear_1403_2134" x1="148.99" y1="100.3" x2="148.99" y2="23.3405" gradientUnits="userSpaceOnUse">
<stop stop-color="#7FCDFE"/>
<stop offset="1" stop-color="#B99CE0"/>
</linearGradient>
<linearGradient id="paint4_linear_1403_2134" x1="216.7" y1="98.4824" x2="216.7" y2="26.6748" gradientUnits="userSpaceOnUse">
<stop stop-color="#7FCDFE"/>
<stop offset="1" stop-color="#B99CE0"/>
</linearGradient>
<linearGradient id="paint5_linear_1403_2134" x1="282.874" y1="113.01" x2="282.874" y2="0" gradientUnits="userSpaceOnUse">
<stop stop-color="#7FCDFE"/>
<stop offset="1" stop-color="#B99CE0"/>
</linearGradient>
<linearGradient id="paint6_linear_1403_2134" x1="282.874" y1="113.01" x2="282.874" y2="0" gradientUnits="userSpaceOnUse">
<stop stop-color="#7FCDFE"/>
<stop offset="1" stop-color="#B99CE0"/>
</linearGradient>
</defs>
</svg>
